<svg xmlns="http://www.w3.org/2000/svg" xmlns:xlink="http://www.w3.org/1999/xlink" width="793.707" height="1122.52" viewBox="0 0 595.28 841.89"><g data-name="Layer"><path d="M0 841.89h595.275V0H0z" fill="#e16c88"/><clipPath id="a"><path transform="matrix(1 0 0 -1 0 841.89)" d="M0 841.89h595.28V0H0z"/></clipPath><g clip-path="url(#a)" stroke-width="2" stroke-miterlimit="10" fill="none" stroke="#fff"><path d="M595.28 168.368L147.004 418.315l-62.16-34.273.176 35.577 62.159 34.273 448.1-250.012M595.28 274.096L242.688 470.499l-62.159-34.274.175 35.578 62.16 34.273L595.28 309.602M595.28 380.347L338.83 522.532l-62.16-34.274.175 35.577 62.16 34.274 256.275-142.27"/></g><path d="M147.179 453.892l-.175-35.577z" fill="#fff"/><path stroke-width="2" stroke-miterlimit="10" fill="none" stroke="#fff" d="M147.004 418.315l.175 35.577"/><path d="M242.226 505.846l-.176-35.578z" fill="#fff"/><path stroke-width="2" stroke-miterlimit="10" fill="none" stroke="#fff" d="M242.05 470.269l.176 35.577"/><path d="M338.11 557.777l-.176-35.577z" fill="#fff"/><path stroke-width="2" stroke-miterlimit="10" fill="none" stroke="#fff" d="M337.934 522.2l.175 35.577"/><path d="M84.345 383.17L595.28 98.713z" fill="#fff"/><clipPath id="b"><path transform="matrix(1 0 0 -1 0 841.89)" d="M0 841.89h595.28V0H0z"/></clipPath><g clip-path="url(#b)"><path stroke-width="2" stroke-miterlimit="10" fill="none" stroke="#fff" d="M84.345 383.17L595.28 98.71"/><path d="M142.067 398.024l3.44-7.07c4.817 1.12 9.59 1.035 14.208-1.495 4.443-2.435 3.818-4.037 2.257-4.93-2.488-1.425-5.81-.707-13.629 1.695-7.759 2.371-16.617 3.981-24.37-.457-7.81-4.47-5.658-10.704 1.417-14.58 6.724-3.682 15.17-4.744 24.11-2.966l-3.322 6.94c-4.295-.887-8.02-.857-11.762 1.193-2.924 1.601-2.939 3.23-1.32 4.157 1.853 1.06 4.12 1.244 12.403-1.154 8.05-2.335 17.148-4.922 25.712-.02 7.812 4.472 6.126 10.58-2.763 15.448-8.595 4.71-18.142 5.4-26.38 3.24M184.002 355.546c-2.952-1.69-7.314-1.828-10.179-.259l-6.14 3.363 10.416 5.961 6.14-3.362c2.865-1.57 2.713-4.014-.237-5.703m9.356-5.125c7.694 4.405 7.63 11.376-.439 15.795l-6.14 3.363 12.73 7.286-9.357 5.125-40.504-23.184 15.496-8.487c8.07-4.42 20.516-4.303 28.214.102M244.394 342.299l8.91 5.1-25.727 14.093-40.504-23.184 25.435-13.932 8.912 5.1-16.08 8.808 6.711 3.842 14.62-8.007 8.794 5.034-14.619 8.008 7.175 4.106zM239.195 332.444c-11.92-6.823-12.116-16.955.222-23.713 7.427-4.068 17.62-5.568 26.915-4.244l-3.439 7.07c-4.939-.796-10.299.066-14.45 2.34-7.25 3.97-7.125 9.282.107 13.423 7.232 4.14 16.713 4.326 23.964.355 4.152-2.274 5.865-5.29 4.497-8.037l12.697-1.771c2.221 5.2-.683 10.875-8.168 14.974-12.338 6.758-30.427 6.425-42.345-.397M272.935 290.456l40.504 23.184-9.357 5.125-40.504-23.185zM329.503 287.99l-19.664-5.885 10.075 11.137zm11.487 3.43l-15.203 8.328 4.318 4.764-10.233 5.605-26.587-30.807 11.928-6.533 54.42 15.56-10.233 5.606zM381.13 266.582l8.91 5.1-23.974 13.132-40.504-23.184 9.356-5.124 31.593 18.083zM270 443.14l-31.319-3.372 18.471 10.475-9.177 5.074-39.909-22.632 9.176-5.075 17.333 9.83-5.059-16.617 10.44-5.77 5.905 18.508 34.578 3.805zM271.858 427.68l-27.026-15.326 9.179-5.074 26.225 14.873c3.022 1.714 7.022 2.375 11.897-.32 4.875-2.696 3.743-4.944.723-6.657l-26.228-14.873 9.178-5.074 27.025 15.325c8.552 4.85 7.029 11.438-1.804 16.322-8.833 4.884-20.618 5.654-29.169.804M331.956 386.533c-6.843-3.88-15.535-3.927-21.844-.438l-6.882 3.806 22.348 12.674 6.882-3.807c6.309-3.488 6.337-8.356-.504-12.235m8.833-4.885c11.287 6.401 11.522 15.978.452 22.098l-16.06 8.881-39.91-22.633 16.06-8.879c11.07-6.122 28.168-5.869 39.458.533M379.678 360.144c-7.127-4.042-17.022-3.87-23.56-.256-6.539 3.616-6.969 9.154.158 13.196 7.126 4.04 17.02 3.87 23.558.254 6.54-3.615 6.97-9.153-.156-13.194M347.1 378.158c-11.746-6.66-11.403-16.937.125-23.312 11.53-6.375 29.886-6.437 41.631.224 11.745 6.66 11.403 16.937-.126 23.312s-29.886 6.436-41.63-.224M404.335 358.707l3.354-6.964c4.741 1.082 9.43.98 13.961-1.526 4.36-2.41 3.738-3.983 2.2-4.855-2.452-1.39-5.715-.671-13.39 1.721-7.619 2.361-16.32 3.979-23.96-.353-7.696-4.365-5.604-10.502 1.336-14.339 6.596-3.648 14.894-4.724 23.69-3.012l-3.238 6.836c-4.228-.855-7.888-.811-11.559 1.218-2.868 1.586-2.876 3.188-1.28 4.093 1.824 1.035 4.054 1.207 12.186-1.183 7.906-2.327 16.84-4.905 25.278-.12 7.698 4.365 6.064 10.376-2.655 15.197-8.432 4.662-17.814 5.379-25.923 3.287M348.278 487.41l-18.342-5.133 9.533 10.164zm10.713 2.99l-13.966 7.978 4.086 4.35-9.4 5.368-25.178-28.137 10.957-6.26 50.745 13.531-9.4 5.371zM339.35 465.782l9.023-5.155 33.074 10.871-19.323-18.726 6.983-3.99 33.826 10.442-20.076-18.297 9.024-5.155 27.595 26.756-9.775 5.584-28.52-8.792 16.273 15.789-9.776 5.584zM439.487 435.303l-18.342-5.132 9.533 10.165zm10.713 2.992l-13.966 7.978 4.085 4.348-9.399 5.37-25.179-28.137 10.957-6.26 50.746 13.53-9.4 5.37zM461.883 415.826l6.446-3.682c2.363-1.35 2.182-3.615-.583-5.133-2.768-1.519-6.816-1.575-9.179-.225l-6.446 3.682zm11.675 1.835l-4.083 2.332 12.473 6.845-8.594 4.91-37.962-20.834 15.04-8.592c7.144-4.08 18.695-4.18 25.908-.22 4.663 2.558 6.1 6.475 4.08 10l21.94 3.076-9.239 5.277zM515.268 387.776c-6.491-3.603-14.695-3.574-20.62-.228l-6.463 3.65 21.2 11.772 6.463-3.65c5.925-3.347 5.91-7.94-.58-11.544m8.294-4.685c10.707 5.945 11.01 14.982.614 20.854l-15.08 8.517-37.86-21.02 15.082-8.518c10.395-5.87 26.534-5.779 37.244.167" fill="#fff"/><g opacity=".65"><clipPath id="c"><path transform="matrix(1 0 0 -1 0 841.89)" d="M82.012 748.444h108.013v13.266H82.012z"/></clipPath><g clip-path="url(#c)"><symbol id="d"><path d="M.64 0L.371.667H.268L0 0h.095l.059.148h.332L.545 0H.64M.461.222H.178L.32.581.461.222z"/></symbol><symbol id="e"><path d="M.664 0l.19.667H.762L.615.111.462.667H.393L.24.111.092.667H0L.19 0h.09l.147.538L.574 0h.09z"/></symbol><symbol id="f"><path d="M.484 0l-.18.272a.184.184 0 01.173.194C.477.589.39.667.268.667H0V0h.083v.265h.133L.386 0h.098M.258.338H.083v.255h.175C.337.593.391.541.391.466.391.391.337.338.258.338z"/></symbol><symbol id="g"><path d="M.228 0C.435 0 .57.143.57.333.57.522.435.667.228.667H0V0h.228m0 .074H.083v.519h.145c.165 0 .256-.116.256-.26C.484.19.39.074.228.074z"/></symbol><symbol id="h"><path d="M.437 0v.074H.083v.23H.43v.074H.083v.215h.354v.074H0V0h.437z"/></symbol><symbol id="j"><path d="M.294 0v.593h.212v.074H0V.593h.211V0h.083z"/></symbol><symbol id="k"><path d="M.331 0c.197 0 .331.148.331.345C.662.542.528.69.331.69.133.69 0 .542 0 .345 0 .148.133 0 .331 0m0 .074C.181.074.086.19.086.345c0 .156.095.271.245.271C.48.616.576.501.576.345.576.19.48.074.331.074z"/></symbol><symbol id="l"><path d="M.055.39C.085.39.11.415.11.445S.085.5.055.5A.055.055 0 010 .445C0 .415.025.39.055.39m0-.39C.085 0 .11.025.11.055S.085.11.055.11A.055.055 0 010 .055C0 .025.025 0 .055 0z"/></symbol><use xlink:href="#d" transform="matrix(12 0 0 -12 82.12 90.183)" fill="#fff"/><use xlink:href="#e" transform="matrix(12 0 0 -12 90.712 90.183)" fill="#fff"/><use xlink:href="#d" transform="matrix(12 0 0 -12 101.885 90.183)" fill="#fff"/><use xlink:href="#f" transform="matrix(12 0 0 -12 111.809 90.183)" fill="#fff"/><use xlink:href="#g" transform="matrix(12 0 0 -12 120.305 90.183)" fill="#fff"/><use xlink:href="#h" transform="matrix(12 0 0 -12 129.905 90.183)" fill="#fff"/><use xlink:href="#g" transform="matrix(12 0 0 -12 137.933 90.183)" fill="#fff"/><use xlink:href="#i" transform="matrix(12 0 0 -12 146.597 90.183)" fill="#fff"/><use xlink:href="#j" transform="matrix(12 0 0 -12 151.277 90.183)" fill="#fff"/><use xlink:href="#k" transform="matrix(12 0 0 -12 159.22 90.327)" fill="#fff"/><use xlink:href="#l" transform="matrix(12 0 0 -12 169.708 90.303)" fill="#fff"/><use xlink:href="#i" transform="matrix(12 0 0 -12 172.948 90.183)" fill="#fff"/></g></g><g opacity=".6"><clipPath id="m"><path transform="matrix(1 0 0 -1 0 841.89)" d="M82.008 70.498h347.62v24.2H82.008z"/></clipPath><g clip-path="url(#m)"><symbol id="n"><path d="M.083 0v.265h.185C.4.265.477.357.477.466c0 .109-.075.201-.209.201H0V0h.083m.175.339H.083v.254h.175C.337.593.391.541.391.466.391.391.337.339.258.339z"/></symbol><symbol id="o"><path d="M.272 0c.181 0 .272.106.272.272v.407H.461V.273C.461.151.395.074.272.074S.083.151.083.273v.406H0V.271C0 .107.091 0 .272 0z"/></symbol><symbol id="p"><path d="M.393 0v.074h-.31v.593H0V0h.393z"/></symbol><symbol id="q"><path d="M.346 0v.282l.262.385H.511L.304.357l-.207.31H0L.263.282V0h.083z"/></symbol><symbol id="r"><path d="M.304 0c.122 0 .193.073.193.18 0 .08-.059.153-.13.164a.152.152 0 01.117.153c0 .1-.071.17-.187.17H0V0h.304M.283.378h-.2v.215h.2C.358.593.398.545.398.485.398.424.358.378.283.378M.287.074H.083v.23h.204C.369.304.411.25.411.189.411.118.365.074.287.074z"/></symbol><symbol id="s"><path d="M.556 0v.667H.473V.38h-.39v.287H0V0h.083v.306h.39V0h.083z"/></symbol><symbol id="t"><path d="M.343 0c.118 0 .198.056.254.132L.526.171A.222.222 0 00.343.074C.197.074.086.187.086.345c0 .159.111.271.257.271A.225.225 0 00.526.519l.07.039A.298.298 0 01.343.69.334.334 0 010 .345C0 .14.151 0 .343 0z"/></symbol><symbol id="u"><path d="M.256 0c.18 0 .246.099.246.196 0 .249-.395.163-.395.313 0 .063.057.106.137.106a.255.255 0 00.193-.08l.05.061A.314.314 0 01.25.689C.119.689.021.614.021.504c0-.238.395-.143.395-.315C.416.138.378.074.259.074a.282.282 0 00-.21.095L0 .106A.33.33 0 01.256 0z"/></symbol><symbol id="v"><path d="M.083 0v.667H0V0h.083z"/></symbol><symbol id="w"><path d="M.343 0c.109 0 .2.046.262.115v.241H.293V.282h.229V.146A.263.263 0 00.343.074C.197.074.086.188.086.346c0 .159.111.271.257.271.08 0 .151-.038.193-.092l.066.041a.318.318 0 01-.259.125A.334.334 0 010 .346C0 .139.153 0 .343 0z"/></symbol><symbol id="x"><path d="M.552 0v.667H.469V.146L.085.667H0V0h.083v.532L.472 0h.08z"/></symbol><symbol id="y"><path d="M.174 0c.119 0 .212.068.212.213v.466H.303V.214c0-.083-.052-.14-.134-.14C.111.074.072.105.043.14L0 .077A.214.214 0 01.174 0z"/></symbol><use xlink:href="#n" transform="matrix(9 0 0 -9 82.71 754.693)" fill="#fff"/><use xlink:href="#f" transform="matrix(9 0 0 -9 88.893 754.693)" fill="#fff"/><use xlink:href="#k" transform="matrix(9 0 0 -9 95.022 754.801)" fill="#fff"/><use xlink:href="#o" transform="matrix(9 0 0 -9 103.05 754.801)" fill="#fff"/><use xlink:href="#g" transform="matrix(9 0 0 -9 110.25 754.693)" fill="#fff"/><use xlink:href="#p" transform="matrix(9 0 0 -9 117.45 754.693)" fill="#fff"/><use xlink:href="#q" transform="matrix(9 0 0 -9 121.212 754.693)" fill="#fff"/><use xlink:href="#i" transform="matrix(9 0 0 -9 127.665 754.693)" fill="#fff"/><use xlink:href="#d" transform="matrix(9 0 0 -9 130.968 754.693)" fill="#fff"/><use xlink:href="#e" transform="matrix(9 0 0 -9 137.412 754.693)" fill="#fff"/><use xlink:href="#d" transform="matrix(9 0 0 -9 145.79 754.693)" fill="#fff"/><use xlink:href="#f" transform="matrix(9 0 0 -9 153.233 754.693)" fill="#fff"/><use xlink:href="#g" transform="matrix(9 0 0 -9 159.605 754.693)" fill="#fff"/><use xlink:href="#h" transform="matrix(9 0 0 -9 166.805 754.693)" fill="#fff"/><use xlink:href="#g" transform="matrix(9 0 0 -9 172.826 754.693)" fill="#fff"/><use xlink:href="#i" transform="matrix(9 0 0 -9 179.324 754.693)" fill="#fff"/><use xlink:href="#r" transform="matrix(9 0 0 -9 183.248 754.693)" fill="#fff"/><use xlink:href="#q" transform="matrix(9 0 0 -9 188.918 754.693)" fill="#fff"/><use xlink:href="#i" transform="matrix(9 0 0 -9 195.37 754.693)" fill="#fff"/><use xlink:href="#j" transform="matrix(9 0 0 -9 198.88 754.693)" fill="#fff"/><use xlink:href="#s" transform="matrix(9 0 0 -9 205.325 754.693)" fill="#fff"/><use xlink:href="#h" transform="matrix(9 0 0 -9 212.633 754.693)" fill="#fff"/><use xlink:href="#i" transform="matrix(9 0 0 -9 217.952 754.693)" fill="#fff"/><use xlink:href="#t" transform="matrix(9 0 0 -9 221.633 754.801)" fill="#fff"/><use xlink:href="#u" transform="matrix(9 0 0 -9 228.5 754.801)" fill="#fff"/><use xlink:href="#u" transform="matrix(9 0 0 -9 234.674 754.801)" fill="#fff"/><use xlink:href="#i" transform="matrix(9 0 0 -9 240.506 754.693)" fill="#fff"/><use xlink:href="#g" transform="matrix(9 0 0 -9 244.43 754.693)" fill="#fff"/><use xlink:href="#h" transform="matrix(9 0 0 -9 251.63 754.693)" fill="#fff"/><use xlink:href="#u" transform="matrix(9 0 0 -9 257.29 754.801)" fill="#fff"/><use xlink:href="#v" transform="matrix(9 0 0 -9 263.825 754.693)" fill="#fff"/><use xlink:href="#w" transform="matrix(9 0 0 -9 266.633 754.81)" fill="#fff"/><use xlink:href="#x" transform="matrix(9 0 0 -9 274.193 754.693)" fill="#fff"/><use xlink:href="#i" transform="matrix(9 0 0 -9 280.763 754.693)" fill="#fff"/><use xlink:href="#d" transform="matrix(9 0 0 -9 284.066 754.693)" fill="#fff"/><use xlink:href="#e" transform="matrix(9 0 0 -9 290.509 754.693)" fill="#fff"/><use xlink:href="#d" transform="matrix(9 0 0 -9 298.888 754.693)" fill="#fff"/><use xlink:href="#f" transform="matrix(9 0 0 -9 306.331 754.693)" fill="#fff"/><use xlink:href="#g" transform="matrix(9 0 0 -9 312.703 754.693)" fill="#fff"/><use xlink:href="#u" transform="matrix(9 0 0 -9 319.543 754.801)" fill="#fff"/><use xlink:href="#i" transform="matrix(9 0 0 -9 325.375 754.693)" fill="#fff"/><use xlink:href="#y" transform="matrix(9 0 0 -9 328.696 754.801)" fill="#fff"/><use xlink:href="#o" transform="matrix(9 0 0 -9 334.474 754.801)" fill="#fff"/><use xlink:href="#g" transform="matrix(9 0 0 -9 341.674 754.693)" fill="#fff"/><use xlink:href="#w" transform="matrix(9 0 0 -9 348.631 754.81)" fill="#fff"/><use xlink:href="#h" transform="matrix(9 0 0 -9 356.191 754.693)" fill="#fff"/><use xlink:href="#u" transform="matrix(9 0 0 -9 361.852 754.801)" fill="#fff"/></g></g><g opacity=".6"><clipPath id="z"><path transform="matrix(1 0 0 -1 0 841.89)" d="M442.967 113.529h48.494v36.892h-48.494z"/></clipPath><g clip-path="url(#z)" fill="#fff"><path d="M474.307 703.25l-5.669-5.593-5.562 5.593h-3.182l11.817-11.78h-12.4l-11.86 11.78h-4.485v.822h48.495v-.822zM442.967 716.676h17.03l5.539 5.532 5.639-5.532h3.027L462.46 728.36l12.4.002 6.174-6.111 5.618-5.575h4.809v-.822h-48.495zM452.356 708.38c.233 0 .451.032.654.097s.406.145.61.24l.453-1.168a3.906 3.906 0 00-1.702-.387c-.544 0-1.017.115-1.419.347-.402.232-.71.563-.924.994-.214.431-.32.931-.32 1.5 0 .91.22 1.604.662 2.085.442.481 1.078.722 1.907.722.58 0 1.097-.102 1.556-.305v-1.255a7 7 0 01-.688.244 2.455 2.455 0 01-.706.102c-.805 0-1.207-.529-1.207-1.586 0-.509.1-.908.297-1.197a.948.948 0 01.827-.434M458.936 711.603c-.255 0-.536-.04-.842-.122a4.425 4.425 0 01-.883-.34v1.323c.268.127.526.217.774.268.248.052.555.077.92.077.439 0 .82-.073 1.147-.22.326-.146.575-.35.748-.616.173-.264.259-.566.259-.907 0-.37-.092-.679-.276-.923-.184-.244-.513-.473-.986-.686-.494-.225-.797-.38-.908-.466-.111-.085-.167-.18-.167-.289 0-.1.044-.184.13-.252.089-.067.229-.1.422-.1.373 0 .817.117 1.33.352l.455-1.146c-.591-.263-1.171-.395-1.74-.395-.644 0-1.15.142-1.518.425-.368.283-.552.678-.552 1.184 0 .27.043.505.129.702.087.198.22.374.399.527.179.152.448.31.806.473a8.6 8.6 0 01.73.353.735.735 0 01.2.171.329.329 0 01.062.198.35.35 0 01-.154.294c-.103.077-.265.115-.485.115M465.94 711.603a3.31 3.31 0 01-.841-.122 4.425 4.425 0 01-.883-.34v1.323c.268.127.526.217.774.268.248.052.555.077.92.077.439 0 .82-.073 1.147-.22.326-.146.575-.35.748-.616.173-.264.259-.566.259-.907 0-.37-.092-.679-.276-.923-.184-.244-.513-.473-.986-.686-.494-.225-.797-.38-.908-.466-.111-.085-.167-.18-.167-.289 0-.1.044-.184.13-.252.089-.067.229-.1.422-.1.373 0 .817.117 1.33.352l.455-1.146c-.591-.263-1.171-.395-1.74-.395-.644 0-1.15.142-1.518.425-.368.283-.552.678-.552 1.184 0 .27.043.505.129.702.087.198.22.374.399.527.179.152.448.31.806.473a8.6 8.6 0 01.73.353.735.735 0 01.2.171.329.329 0 01.062.198.35.35 0 01-.154.294c-.103.077-.265.115-.485.115M474.283 711.124c-.211.262-.541.393-.992.393h-.331v-3.078h.432c.406 0 .709.122.908.364.199.244.298.617.298 1.12 0 .54-.105.94-.315 1.201m1.856-1.253c0-.852-.24-1.503-.719-1.954-.48-.45-1.161-.677-2.043-.677h-1.901v5.494h1.777c.915 0 1.624-.248 2.129-.744.505-.496.757-1.202.757-2.119M481.752 708.755c.066-.293.11-.504.133-.631.025.137.077.365.156.684.079.318.146.577.2.777l.238.902h-1.17c.229-.861.377-1.44.443-1.732m1.035 2.95l.27 1.03h1.624l-1.815-5.517h-1.98l-1.793 5.517h1.63l.279-1.03z"/></g></g><g opacity=".6"><clipPath id="A"><path transform="matrix(1 0 0 -1 0 841.89)" d="M419.177 83.888h96.128v96.148h-96.128z"/></clipPath><g clip-path="url(#A)"><use xlink:href="#k" transform="scale(9 -9) rotate(27.035 180.82 65.599)" fill="#fff"/><symbol id="B"><path d="M.083 0v.304H.43v.074H.083v.215h.354v.074H0V0h.083z"/></symbol><use xlink:href="#B" transform="scale(9 -9) rotate(17.276 270.822 128.51)" fill="#fff"/><use xlink:href="#B" transform="scale(9 -9) rotate(8.867 505.633 291.761)" fill="#fff"/><use xlink:href="#v" transform="scale(9 -9) rotate(2.403 1799.17 1194.99)" fill="#fff"/><use xlink:href="#t" transform="scale(9 -9) rotate(-4.714 -877.491 -668.9)" fill="#fff"/><use xlink:href="#v" transform="scale(9 -9) rotate(-11.968 -328.758 -289.138)" fill="#fff"/><use xlink:href="#d" transform="scale(9 -9) rotate(-19.138 -194.454 -194.715)" fill="#fff"/><use xlink:href="#p" transform="scale(9 -9) rotate(-27.992 -123.136 -145.469)" fill="#fff"/><use xlink:href="#i" transform="scale(9 -9) rotate(-34.3 -94.473 -125.59)" fill="#fff"/><use xlink:href="#i" transform="scale(9 -9) rotate(-39.103 -78.683 -114.598)" fill="#fff"/><use xlink:href="#t" transform="scale(9 -9) rotate(-46.409 -60.654 -101.902)" fill="#fff"/><use xlink:href="#u" transform="scale(9 -9) rotate(-55.742 -44.245 -90.535)" fill="#fff"/><use xlink:href="#u" transform="scale(9 -9) rotate(-64.578 -32.772 -82.567)" fill="#fff"/><use xlink:href="#g" transform="scale(9 -9) rotate(-74.146 -23.121 -75.868)" fill="#fff"/><use xlink:href="#d" transform="scale(9 -9) rotate(-83.658 -15.427 -70.514)" fill="#fff"/><use xlink:href="#i" transform="scale(-9 9) rotate(89.072 -68.264 10.735)" fill="#fff"/><use xlink:href="#i" transform="scale(-9 9) rotate(84.426 -71.857 8.504)" fill="#fff"/><use xlink:href="#t" transform="scale(-9 9) rotate(77.046 -78.182 4.408)" fill="#fff"/><use xlink:href="#h" transform="scale(-9 9) rotate(67.732 -87.981 -1.647)" fill="#fff"/><use xlink:href="#f" transform="scale(-9 9) rotate(58.845 -99.771 -9.043)" fill="#fff"/><use xlink:href="#j" transform="scale(-9 9) rotate(50.13 -114.99 -18.593)" fill="#fff"/><use xlink:href="#v" transform="scale(-9 9) rotate(43.591 -130.206 -27.777)" fill="#fff"/><use xlink:href="#B" transform="scale(-9 9) rotate(37.134 -149.991 -40.379)" fill="#fff"/><use xlink:href="#v" transform="scale(-9 9) rotate(30.677 -177.948 -57.513)" fill="#fff"/><use xlink:href="#t" transform="scale(-9 9) rotate(23.409 -227.041 -88.782)" fill="#fff"/><use xlink:href="#d" transform="scale(-9 9) rotate(13.58 -375.988 -182.176)" fill="#fff"/><use xlink:href="#j" transform="scale(-9 9) rotate(5.256 -934.178 -531.096)" fill="#fff"/><use xlink:href="#h" transform="scale(-9 9) rotate(-3.264 1437.371 951.624)" fill="#fff"/><use xlink:href="#i" transform="scale(-9 9) rotate(-9.947 453.219 336.15)" fill="#fff"/><use xlink:href="#i" transform="scale(-9 9) rotate(-14.784 295.494 237.737)" fill="#fff"/><use xlink:href="#k" transform="scale(-9 9) rotate(-22.706 181.842 167.292)" fill="#fff"/><use xlink:href="#B" transform="scale(-9 9) rotate(-32.448 117.437 126.732)" fill="#fff"/><use xlink:href="#i" transform="scale(-9 9) rotate(-39.018 91.794 110.631)" fill="#fff"/><use xlink:href="#i" transform="scale(-9 9) rotate(-43.804 77.817 101.906)" fill="#fff"/><use xlink:href="#h" transform="scale(-9 9) rotate(-50.469 62.615 92.475)" fill="#fff"/><symbol id="C"><path d="M.627 0L.368.343l.244.324H.511L.314.4.116.667H.015L.26.342 0 0h.101l.213.284L.527 0h.1z"/></symbol><use xlink:href="#C" transform="scale(-9 9) rotate(-59.538 47.094 82.834)" fill="#fff"/><use xlink:href="#t" transform="scale(-9 9) rotate(-68.965 34.886 75.19)" fill="#fff"/><use xlink:href="#h" transform="scale(-9 9) rotate(-78.3 25.365 69.196)" fill="#fff"/><use xlink:href="#p" transform="scale(-9 9) rotate(-86.555 18.415 64.846)" fill="#fff"/><use xlink:href="#p" transform="scale(9 -9) rotate(85.694 66.131 -13.804)" fill="#fff"/><use xlink:href="#h" transform="scale(9 -9) rotate(77.449 72.43 -9.451)" fill="#fff"/><use xlink:href="#x" transform="scale(9 -9) rotate(67.909 81.317 -3.354)" fill="#fff"/><use xlink:href="#t" transform="scale(9 -9) rotate(57.767 93.517 5.098)" fill="#fff"/><use xlink:href="#h" transform="scale(9 -9) rotate(48.543 108.524 15.636)" fill="#fff"/></g></g></g><clipPath id="D"><path transform="matrix(1 0 0 -1 0 841.89)" d="M0 841.89h595.28V0H0z"/></clipPath><g clip-path="url(#D)"><path d="M82.096 109.568l.868-1.527c.364.35.841.673 1.486.673.881 0 1.457-.589 1.457-1.5v-6.247h1.988v6.276c0 2.213-1.372 3.235-3.29 3.235-.94 0-1.836-.252-2.509-.91M94.545 102.957l-1.457 4.02h2.913zm2.577 7.354l-.574-1.583h-4.007l-.588 1.583h-2.269l3.614-9.343h2.493l3.601 9.343zM100.731 105.646c0-2.872 2.171-4.833 4.973-4.833 2.058 0 3.249 1.12 3.908 2.283l-1.709.841c-.393-.757-1.234-1.359-2.199-1.359-1.696 0-2.928 1.302-2.928 3.068 0 1.765 1.232 3.067 2.928 3.067.965 0 1.806-.588 2.199-1.359l1.709.827c-.673 1.162-1.85 2.297-3.908 2.297-2.802 0-4.973-1.96-4.973-4.832M111.567 108.994l1.079-1.513a4.098 4.098 0 002.97 1.261c1.092 0 1.624-.505 1.624-1.037 0-1.652-5.38-.519-5.38-4.034 0-1.555 1.346-2.844 3.545-2.844 1.485 0 2.718.448 3.642 1.303l-1.106 1.457c-.757-.7-1.766-1.023-2.718-1.023-.854 0-1.331.378-1.331.94 0 1.483 5.365.49 5.365 3.977 0 1.708-1.218 2.997-3.74 2.997-1.793 0-3.081-.602-3.95-1.484M129.266 105.646c0-1.75-1.12-3.068-2.844-3.068-1.722 0-2.829 1.317-2.829 3.068 0 1.736 1.107 3.067 2.83 3.067s2.843-1.33 2.843-3.067m-7.718 0c0-2.816 2.06-4.833 4.874-4.833 2.83 0 4.89 2.017 4.89 4.833 0 2.815-2.06 4.832-4.89 4.832-2.815 0-4.874-2.017-4.874-4.832M140.55 110.31l-4.455-6.094v6.094h-1.988v-9.343h2.045l4.328 5.87v-5.87h1.99v9.343zM150.697 110.31v-9.343h1.988v7.592h3.95v1.751zM159.083 106.585v-5.617h2.017v5.547c0 1.302.756 2.199 2.2 2.199 1.442 0 2.184-.897 2.184-2.2v-5.546h2.032v5.602c0 2.326-1.372 3.909-4.216 3.909-2.845 0-4.217-1.597-4.217-3.894M170.745 100.968h1.989v9.343h-1.989zM175.35 108.994l1.08-1.513a4.098 4.098 0 002.97 1.261c1.091 0 1.623-.505 1.623-1.037 0-1.652-5.379-.519-5.379-4.034 0-1.555 1.345-2.844 3.544-2.844 1.485 0 2.718.448 3.642 1.303l-1.106 1.457c-.757-.7-1.766-1.023-2.718-1.023-.854 0-1.33.378-1.33.94 0 1.483 5.364.49 5.364 3.977 0 1.708-1.218 2.997-3.74 2.997-1.793 0-3.08-.602-3.95-1.484M196.311 110.31l-2.83-3.74-.728.87v2.87h-1.989v-9.343h1.989v4.174l3.306-4.174h2.451l-3.712 4.384 3.964 4.96zM206.544 103.98c0-.786-.603-1.262-1.4-1.262h-2.088v2.522h2.088c.797 0 1.4-.477 1.4-1.26m-.196 6.33l-1.835-3.319h-1.457v3.32h-1.989v-9.344h4.371c1.947 0 3.137 1.275 3.137 3.012 0 1.652-1.037 2.535-2.045 2.773l2.101 3.558zM217.394 100.365a.952.952 0 01-.952-.952.95.95 0 01.952-.939.95.95 0 01.952.94.952.952 0 01-.952.951m-2.955 0a.944.944 0 01-.953-.952c0-.519.42-.939.953-.939.517 0 .938.42.938.94a.942.942 0 01-.938.951m4.3 5.281c0-1.75-1.12-3.068-2.844-3.068-1.723 0-2.829 1.317-2.829 3.068 0 1.737 1.106 3.068 2.829 3.068 1.724 0 2.844-1.33 2.844-3.068m-7.718 0c0-2.816 2.059-4.833 4.874-4.833 2.83 0 4.889 2.017 4.889 4.833 0 2.816-2.059 4.832-4.889 4.832-2.815 0-4.874-2.016-4.874-4.832M225.4 110.31v-7.592h-2.73v-1.75h7.45v1.75h-2.716v7.592zM232.455 110.31v-1.61l4.413-5.982h-4.413v-1.75h7.019v1.596l-4.414 5.995h4.51v1.751zM83.727 684.857v-17.343h3.692v14.093h7.332v3.25zM105.541 684.857v-1.586c-.858.962-2.366 1.898-4.42 1.898-2.756 0-4.056-1.508-4.056-3.953v-8.918h3.302v7.62c0 1.741.91 2.313 2.314 2.313 1.274 0 2.288-.702 2.86-1.43v-8.503h3.302v12.56zM112.119 672.299h3.302v12.559h-3.302zm-.338-3.328c0-1.092.909-1.95 1.975-1.95 1.093 0 1.977.858 1.977 1.95a1.974 1.974 0 01-1.977 1.975 1.99 1.99 0 01-1.975-1.975M117.604 683.219l1.43-2.313c.91.857 2.782 1.715 4.342 1.715 1.43 0 2.106-.572 2.106-1.351 0-2.08-7.462-.391-7.462-5.331 0-2.106 1.846-3.952 5.148-3.952 2.132 0 3.823.728 5.071 1.716l-1.326 2.262c-.754-.806-2.184-1.456-3.719-1.456-1.195 0-1.976.546-1.976 1.248 0 1.872 7.437.313 7.437 5.382 0 2.288-1.95 4.03-5.435 4.03-2.184 0-4.29-.727-5.616-1.95M139.236 684.857l-3.328-4.836-1.508 1.611v3.225h-3.302v-17.343h3.302v10.374l4.758-5.59h4.056l-4.966 5.695 5.122 6.864zM145.008 684.857v-12.559h3.302v1.716c.884-1.118 2.444-2.028 4.004-2.028v3.225a4.377 4.377 0 00-.91-.079c-1.092 0-2.548.624-3.094 1.43v8.295z" fill="#fff"/><g opacity=".65"><clipPath id="E"><path transform="matrix(1 0 0 -1 0 841.89)" d="M82.647 194.211h79.328v8.264H82.647z"/></clipPath><g clip-path="url(#E)" fill="#fff"><path d="M82.658 647.534v-.79c2.878-2.268 4.438-3.6 4.438-4.979 0-1.019-.84-1.462-1.667-1.462-.96 0-1.704.407-2.17 1.006l-.613-.635c.612-.803 1.655-1.259 2.783-1.259 1.331 0 2.686.756 2.686 2.35 0 1.631-1.655 3.12-3.886 4.881h3.922v.888zM95.976 643.541c0-1.596-.516-3.238-2.039-3.238-1.523 0-2.039 1.642-2.039 3.238 0 1.595.516 3.25 2.04 3.25 1.522 0 2.038-1.655 2.038-3.25m-5.097 0c0-1.955.863-4.126 3.058-4.126 2.183 0 3.06 2.171 3.06 4.126 0 1.942-.877 4.138-3.06 4.138-2.195 0-3.058-2.196-3.058-4.138M99.458 647.534v-.79c2.878-2.268 4.438-3.6 4.438-4.979 0-1.019-.84-1.462-1.667-1.462-.96 0-1.704.407-2.171 1.006l-.612-.635c.612-.803 1.655-1.259 2.783-1.259 1.331 0 2.686.756 2.686 2.35 0 1.631-1.655 3.12-3.886 4.881h3.922v.888zM112.776 643.541c0-1.596-.516-3.238-2.04-3.238-1.522 0-2.038 1.642-2.038 3.238 0 1.595.516 3.25 2.039 3.25 1.523 0 2.039-1.655 2.039-3.25m-5.097 0c0-1.955.863-4.126 3.058-4.126 2.183 0 3.059 2.171 3.059 4.126 0 1.942-.876 4.138-3.06 4.138-2.194 0-3.057-2.196-3.057-4.138M120.039 646.755l.516-.756c.348.42.816.792 1.51.792.984 0 1.608-.683 1.608-1.68v-5.576h.995v5.589c0 1.738-1.115 2.555-2.542 2.555-.852 0-1.535-.277-2.087-.924M127.742 644.428v-4.893h.996v4.87c0 1.462.791 2.386 2.266 2.386s2.267-.924 2.267-2.386v-4.87h.995v4.88c0 1.992-1.09 3.264-3.262 3.264-2.17 0-3.262-1.283-3.262-3.251M143.002 647.534l-4.665-6.38v6.38h-.996v-7.999h1.02l4.605 6.248v-6.248h.995v8zM152.533 647.534v-6.68l-1.283 1.355-.6-.612 2.003-2.062h.876v8zM159.852 640.458l-2.806 4.174h2.806zm0 7.076v-2.026h-3.802v-.828l3.43-5.145h1.368v5.097h1.127v.876h-1.127v2.026z"/></g></g></g></g></svg>