<svg xmlns="http://www.w3.org/2000/svg" xmlns:xlink="http://www.w3.org/1999/xlink" width="793.707" height="1122.52" viewBox="0 0 595.28 841.89"><g data-name="Layer"><path d="M0 841.89h595.275V0H0z" fill="#fbb53f"/><clipPath id="a"><path transform="matrix(1 0 0 -1 0 841.89)" d="M0 841.89h595.28V0H0z"/></clipPath><g clip-path="url(#a)"><path d="M297.317 487.407c.845 24.9-13.362 51.145-32.62 58.976-20.316 8.262-38.375-6.937-39.307-34.368-.93-27.43 15.483-55.318 36.097-60.165 16.8-3.95 34.985 10.656 35.83 35.557" fill="#f0f0f2"/><path stroke-width="2" stroke-miterlimit="10" fill="none" stroke="#272727" d="M297.317 487.407c.845 24.9-13.362 51.145-32.62 58.976-20.316 8.262-38.375-6.937-39.307-34.368-.93-27.43 15.483-55.318 36.097-60.165 16.8-3.95 34.985 10.656 35.83 35.557z"/><path d="M310.414 493.308c.848 24.987-13.46 51.293-32.853 59.115-20.455 8.251-38.635-7.032-39.57-34.554-.934-27.522 15.701-55.045 36.35-60.3 16.372-4.168 35.225 10.752 36.073 35.74" fill="#f0f0f2"/><path stroke-width="2" stroke-miterlimit="10" fill="none" stroke="#272727" d="M310.414 493.308c.848 24.987-13.46 51.293-32.853 59.115-20.455 8.251-38.635-7.032-39.57-34.554-.934-27.522 15.701-55.045 36.35-60.3 16.372-4.168 35.225 10.752 36.073 35.74z"/><path d="M322.069 497.712c.848 24.987-13.461 51.293-32.853 59.115-20.455 8.251-38.635-7.032-39.57-34.554-.934-27.522 15.807-54.648 36.35-60.301 19.476-5.359 35.225 10.753 36.073 35.74" fill="#f0f0f2"/><path stroke-width="2" stroke-miterlimit="10" fill="none" stroke="#272727" d="M322.069 497.712c.848 24.987-13.461 51.293-32.853 59.115-20.455 8.251-38.635-7.032-39.57-34.554-.934-27.522 15.807-54.648 36.35-60.301 19.476-5.359 35.225 10.753 36.073 35.74z"/><path d="M123.822 444.21c-4.087 7.042-8.104 14.086-11.72 21.385a296.391 296.391 0 00-18.017 45.441 294.436 294.436 0 00-7.613 30.994 583.966 583.966 0 01133.483 55.95c7.922-39.343 16.325-79.86 38.88-113.056 5.377-7.915 11.74-15.511 20.195-19.995 8.454-4.483 19.386-5.292 27.327.046-37.165-20.028-81.183-21.251-122.242-31.07-10.399-2.486-20.874-5.567-31.554-5.061-6.76.32-13.639 2.336-19.152 6.339-2.052 1.49-3.9 3.265-5.41 5.305-1.12 1.515-2.49 2.86-4.18 3.72" fill="#f0f0f2"/><path stroke-width="2" stroke-miterlimit="10" fill="none" stroke="#272727" d="M123.822 444.21c-4.087 7.042-8.104 14.086-11.72 21.385a296.391 296.391 0 00-18.017 45.441 294.436 294.436 0 00-7.613 30.994 583.966 583.966 0 01133.483 55.95c7.922-39.343 16.325-79.86 38.88-113.056 5.377-7.915 11.74-15.511 20.195-19.995 8.454-4.483 19.386-5.292 27.327.046-37.165-20.028-81.183-21.251-122.242-31.07-10.399-2.486-20.874-5.567-31.554-5.061-6.76.32-13.639 2.336-19.152 6.339-2.052 1.49-3.9 3.265-5.41 5.305-1.12 1.515-2.49 2.86-4.18 3.72"/><path stroke-width="2" stroke-miterlimit="10" fill="none" stroke="#272727" d="M199.245 586.834c4.056-18.782 11.011-49.025 19.865-71.697 4.78-12.237 11.992-25.669 20.671-35.695 10.263-11.855 23.958-20.846 38.689-26.126M213.665 483.177s-6.168 7.733-13.957 27.676c-8.056 20.626-14.937 48.154-19 66.32M191.437 483.085s-3.734 3.697-11.523 23.641c-7.522 19.259-13.977 44.648-17.968 62.056M171.737 478.776s-3.836 4.037-11.625 23.98c-7.035 18.014-13.252 42.166-17.127 58.672M153.988 471.248s-5.799 7.723-13.588 27.666c-6.725 17.218-12.803 39.945-16.581 55.783M139.219 460.867s-9.323 11.18-17.112 31.122c-6.84 17.512-13.065 40.428-16.881 56.521"/><path d="M386.258 192.349v63.007c0 34.737 2.041 70.55-.53 105.247-.642 8.645-4.783 22.563-11.637 33.03-4.615 7.048-11.182 13.932-21.299 17.806-16.263 6.227-40.28 4.099-57.449.398-23.74-5.117-44.417-21.424-56.932-41.334-12.206-19.418-14.719-44.238-14.719-72.004V169.496l46.483 6.35-.195 132.05c0 15.714 2.367 27.89 7.135 36.593 4.812 8.786 11.99 14.847 21.634 18.168 10.524 3.624 18.292 2.615 23.175-3.127 4.927-5.793 7.408-17.184 7.408-34.137l.146-141.296z" fill="#f0f0f2"/><path stroke-width="2" stroke-miterlimit="10" fill="none" stroke="#272727" d="M386.258 192.349v63.007c0 34.737 2.041 70.55-.53 105.247-.642 8.645-4.783 22.563-11.637 33.03-4.615 7.048-11.182 13.932-21.299 17.806-16.263 6.227-40.28 4.099-57.449.398-23.74-5.117-44.417-21.424-56.932-41.334-12.206-19.418-14.719-44.238-14.719-72.004V169.496l46.483 6.35-.195 132.05c0 15.714 2.367 27.89 7.135 36.593 4.812 8.786 11.99 14.847 21.634 18.168 10.524 3.624 18.292 2.615 23.175-3.127 4.927-5.793 7.408-17.184 7.408-34.137l.146-141.296 56.78 8.252z"/><path d="M369.364 202.105v63.007c0 34.737 2.04 70.55-.531 105.247-.641 8.645-4.782 22.563-11.636 33.03-4.615 7.048-11.182 13.932-21.3 17.806-16.262 6.227-40.28 4.099-57.448.398-23.74-5.117-44.417-21.424-56.932-41.334-12.206-19.418-14.72-44.238-14.72-72.004V179.252l46.484 6.35-.195 132.05c0 15.714 2.367 27.89 7.135 36.593 4.812 8.786 11.99 14.847 21.634 18.168 10.524 3.624 18.292 2.615 23.175-3.127 4.927-5.793 7.408-17.184 7.408-34.137l.146-141.296z" fill="#f0f0f2"/><path stroke-width="2" stroke-miterlimit="10" fill="none" stroke="#272727" d="M369.364 202.105v63.007c0 34.737 2.04 70.55-.531 105.247-.641 8.645-4.782 22.563-11.636 33.03-4.615 7.048-11.182 13.932-21.3 17.806-16.262 6.227-40.28 4.099-57.448.398-23.74-5.117-44.417-21.424-56.932-41.334-12.206-19.418-14.72-44.238-14.72-72.004V179.252l46.484 6.35-.195 132.05c0 15.714 2.367 27.89 7.135 36.593 4.812 8.786 11.99 14.847 21.634 18.168 10.524 3.624 18.292 2.615 23.175-3.127 4.927-5.793 7.408-17.184 7.408-34.137l.146-141.296 56.78 8.252z"/><path d="M352.469 211.86v63.008c0 34.737 2.041 70.55-.531 105.247-.641 8.645-4.782 22.563-11.636 33.03-4.615 7.048-11.182 13.932-21.299 17.806-16.263 6.227-40.281 4.099-57.449.398-23.74-5.117-44.417-21.424-56.932-41.334-12.206-19.418-14.719-44.238-14.719-72.004V189.008l46.483 6.35-.195 132.05c0 15.714 2.367 27.89 7.135 36.593 4.812 8.786 11.99 14.847 21.634 18.168 10.524 3.624 18.292 2.615 23.175-3.127 4.927-5.793 7.408-17.184 7.408-34.137l.146-141.296z" fill="#f0f0f2"/><path stroke-width="2" stroke-miterlimit="10" fill="none" stroke="#272727" d="M352.469 211.86v63.008c0 34.737 2.041 70.55-.531 105.247-.641 8.645-4.782 22.563-11.636 33.03-4.615 7.048-11.182 13.932-21.299 17.806-16.263 6.227-40.281 4.099-57.449.398-23.74-5.117-44.417-21.424-56.932-41.334-12.206-19.418-14.719-44.238-14.719-72.004V189.008l46.483 6.35-.195 132.05c0 15.714 2.367 27.89 7.135 36.593 4.812 8.786 11.99 14.847 21.634 18.168 10.524 3.624 18.292 2.615 23.175-3.127 4.927-5.793 7.408-17.184 7.408-34.137l.146-141.296 56.78 8.252z"/><path d="M335.574 221.617v63.007c0 34.737 2.041 70.55-.53 105.247-.642 8.645-4.783 22.563-11.637 33.03-4.615 7.048-11.182 13.932-21.299 17.806-16.263 6.227-40.28 4.099-57.449.398-23.74-5.117-44.417-21.424-56.932-41.334-12.206-19.418-14.719-44.238-14.719-72.004V198.764l46.483 6.35-.195 132.05c0 15.714 2.367 27.89 7.135 36.593 4.812 8.786 11.99 14.847 21.634 18.168 10.524 3.624 18.292 2.615 23.175-3.127 4.927-5.793 7.408-17.184 7.408-34.137l.146-141.296z" fill="#f0f0f2"/><path stroke-width="2" stroke-miterlimit="10" fill="none" stroke="#272727" d="M335.574 221.617v63.007c0 34.737 2.041 70.55-.53 105.247-.642 8.645-4.783 22.563-11.637 33.03-4.615 7.048-11.182 13.932-21.299 17.806-16.263 6.227-40.28 4.099-57.449.398-23.74-5.117-44.417-21.424-56.932-41.334-12.206-19.418-14.719-44.238-14.719-72.004V198.764l46.483 6.35-.195 132.05c0 15.714 2.367 27.89 7.135 36.593 4.812 8.786 11.99 14.847 21.634 18.168 10.524 3.624 18.292 2.615 23.175-3.127 4.927-5.793 7.408-17.184 7.408-34.137l.146-141.296 56.78 8.252z"/><path d="M318.68 231.373v63.007c0 34.737 2.04 70.55-.531 105.247-.641 8.645-4.782 22.563-11.636 33.03-4.615 7.048-11.182 13.932-21.3 17.806-16.262 6.227-40.28 4.099-57.448.398-23.74-5.117-44.417-21.424-56.932-41.334-12.206-19.418-14.72-44.238-14.72-72.004V208.52l46.484 6.35-.195 132.05c0 15.714 2.367 27.89 7.135 36.593 4.812 8.786 11.99 14.847 21.634 18.168 10.524 3.624 18.292 2.615 23.175-3.127 4.927-5.793 7.408-17.184 7.408-34.137l.146-141.296z" fill="#f0f0f2"/><path stroke-width="2" stroke-miterlimit="10" fill="none" stroke="#272727" d="M318.68 231.373v63.007c0 34.737 2.04 70.55-.531 105.247-.641 8.645-4.782 22.563-11.636 33.03-4.615 7.048-11.182 13.932-21.3 17.806-16.262 6.227-40.28 4.099-57.448.398-23.74-5.117-44.417-21.424-56.932-41.334-12.206-19.418-14.72-44.238-14.72-72.004V208.52l46.484 6.35-.195 132.05c0 15.714 2.367 27.89 7.135 36.593 4.812 8.786 11.99 14.847 21.634 18.168 10.524 3.624 18.292 2.615 23.175-3.127 4.927-5.793 7.408-17.184 7.408-34.137l.146-141.296 56.78 8.252z"/><path d="M301.785 241.129v63.007c0 34.737 2.041 70.55-.53 105.247-.642 8.645-4.783 22.563-11.637 33.03-4.615 7.048-11.182 13.932-21.299 17.806-16.263 6.227-40.28 4.099-57.449.398-23.74-5.117-44.417-21.424-56.932-41.334-12.206-19.418-14.719-44.238-14.719-72.004V218.276l46.483 6.35-.195 132.05c0 15.714 2.367 27.89 7.135 36.593 4.812 8.786 11.99 14.847 21.634 18.168 10.524 3.624 18.292 2.615 23.175-3.127 4.927-5.793 7.408-17.184 7.408-34.137l.146-141.296z" fill="#f0f0f2"/><path stroke-width="2" stroke-miterlimit="10" fill="none" stroke="#272727" d="M301.785 241.129v63.007c0 34.737 2.041 70.55-.53 105.247-.642 8.645-4.783 22.563-11.637 33.03-4.615 7.048-11.182 13.932-21.299 17.806-16.263 6.227-40.28 4.099-57.449.398-23.74-5.117-44.417-21.424-56.932-41.334-12.206-19.418-14.719-44.238-14.719-72.004V218.276l46.483 6.35-.195 132.05c0 15.714 2.367 27.89 7.135 36.593 4.812 8.786 11.99 14.847 21.634 18.168 10.524 3.624 18.292 2.615 23.175-3.127 4.927-5.793 7.408-17.184 7.408-34.137l.146-141.296 56.78 8.252z"/><path d="M284.89 250.885v63.007c0 34.737 2.042 70.55-.53 105.247-.641 8.645-4.782 22.563-11.636 33.03-4.615 7.048-11.182 13.932-21.3 17.806-16.262 6.227-40.28 4.099-57.448.398-23.74-5.117-44.417-21.424-56.932-41.334-12.206-19.418-14.72-44.238-14.72-72.004V228.032l46.484 6.35-.195 132.05c0 15.714 2.367 27.89 7.135 36.593 4.812 8.786 11.99 14.847 21.634 18.168 10.524 3.624 18.292 2.615 23.175-3.127 4.927-5.793 7.408-17.184 7.408-34.137l.146-141.296z" fill="#f0f0f2"/><path stroke-width="2" stroke-miterlimit="10" fill="none" stroke="#272727" d="M284.89 250.885v63.007c0 34.737 2.042 70.55-.53 105.247-.641 8.645-4.782 22.563-11.636 33.03-4.615 7.048-11.182 13.932-21.3 17.806-16.262 6.227-40.28 4.099-57.448.398-23.74-5.117-44.417-21.424-56.932-41.334-12.206-19.418-14.72-44.238-14.72-72.004V228.032l46.484 6.35-.195 132.05c0 15.714 2.367 27.89 7.135 36.593 4.812 8.786 11.99 14.847 21.634 18.168 10.524 3.624 18.292 2.615 23.175-3.127 4.927-5.793 7.408-17.184 7.408-34.137l.146-141.296 56.78 8.252z"/><path d="M267.996 260.64v63.008c0 34.737 2.04 70.55-.531 105.247-.641 8.645-4.782 22.563-11.636 33.03-4.615 7.048-11.182 13.932-21.3 17.806-16.262 6.227-40.28 4.099-57.448.398-23.74-5.117-44.417-21.424-56.932-41.334-12.206-19.418-14.72-44.238-14.72-72.004V237.788l46.484 6.35-.195 132.05c0 15.714 2.367 27.89 7.135 36.593 4.812 8.786 11.99 14.847 21.634 18.168 10.524 3.624 18.292 2.615 23.175-3.127 4.927-5.793 7.408-17.184 7.408-34.137l.146-141.296z" fill="#f0f0f2"/><path stroke-width="2" stroke-miterlimit="10" fill="none" stroke="#272727" d="M267.996 260.64v63.008c0 34.737 2.04 70.55-.531 105.247-.641 8.645-4.782 22.563-11.636 33.03-4.615 7.048-11.182 13.932-21.3 17.806-16.262 6.227-40.28 4.099-57.448.398-23.74-5.117-44.417-21.424-56.932-41.334-12.206-19.418-14.72-44.238-14.72-72.004V237.788l46.484 6.35-.195 132.05c0 15.714 2.367 27.89 7.135 36.593 4.812 8.786 11.99 14.847 21.634 18.168 10.524 3.624 18.292 2.615 23.175-3.127 4.927-5.793 7.408-17.184 7.408-34.137l.146-141.296 56.78 8.252z"/><path d="M447.745 489.317V203.872l56.503 10.021v305.928z" fill="#f0f0f2"/><path stroke-width="2" stroke-miterlimit="10" fill="none" stroke="#272727" d="M447.745 489.317V203.872l56.503 10.021v305.928l-56.503-30.504z"/><path d="M430.818 499.332V213.887l56.503 10.021v305.928z" fill="#f0f0f2"/><path stroke-width="2" stroke-miterlimit="10" fill="none" stroke="#272727" d="M430.818 499.332V213.887l56.503 10.021v305.928l-56.503-30.504z"/><path d="M413.891 509.347V223.902l56.503 10.02v305.929z" fill="#f0f0f2"/><path stroke-width="2" stroke-miterlimit="10" fill="none" stroke="#272727" d="M413.891 509.347V223.902l56.503 10.02v305.929l-56.503-30.504z"/><path d="M396.964 519.362V233.917l56.503 10.02v305.929z" fill="#f0f0f2"/><path stroke-width="2" stroke-miterlimit="10" fill="none" stroke="#272727" d="M396.964 519.362V233.917l56.503 10.02v305.929l-56.503-30.504z"/><path d="M380.037 529.377V243.93l56.503 10.022V559.88z" fill="#f0f0f2"/><path stroke-width="2" stroke-miterlimit="10" fill="none" stroke="#272727" d="M380.037 529.377V243.93l56.503 10.022V559.88l-56.503-30.504z"/><path d="M363.11 539.392V253.946l56.503 10.022v305.928z" fill="#f0f0f2"/><path stroke-width="2" stroke-miterlimit="10" fill="none" stroke="#272727" d="M363.11 539.392V253.946l56.503 10.022v305.928l-56.503-30.504z"/><path d="M346.183 549.407V263.96l56.503 10.023V579.91z" fill="#f0f0f2"/><path stroke-width="2" stroke-miterlimit="10" fill="none" stroke="#272727" d="M346.183 549.407V263.96l56.503 10.023V579.91l-56.503-30.504z"/><path d="M329.256 559.421V273.975l56.503 10.022v305.928z" fill="#f0f0f2"/><path stroke-width="2" stroke-miterlimit="10" fill="none" stroke="#272727" d="M329.256 559.421V273.975l56.503 10.022v305.928l-56.503-30.504z"/><path d="M351.404 330.474l10.148 1.826v2.249c0 3.558-1.675 5.035-5.02 4.433-3.42-.615-5.128-2.835-5.128-6.661zm5.203 11.26c2.174.392 3.861-.008 5.06-1.197 1.198-1.19 1.798-3.05 1.798-5.577v-4.912l-13.985-2.516v4.443c0 2.739.611 4.945 1.832 6.623 1.221 1.674 2.986 2.72 5.295 3.136M351.421 349.035l4.391.79v5.987l1.913.345v-5.988l3.807.686v6.39l1.933.347v-8.986l-13.985-2.517v8.987l1.941.349zM353.279 370.58c.63.113 1.179.086 1.645-.083.465-.172.882-.494 1.252-.972.37-.475.769-1.26 1.197-2.35.376-.968.678-1.63.908-1.986.229-.358.473-.601.732-.728.257-.128.569-.16.932-.093.529.095.955.389 1.277.882.32.492.483 1.16.483 1.999 0 1.109-.261 2.323-.784 3.64l1.864 1.162c.588-1.401.88-2.862.88-4.384 0-1.586-.334-2.911-1.003-3.974-.67-1.061-1.588-1.697-2.755-1.907-.93-.167-1.73-.014-2.391.459-.663.476-1.253 1.39-1.771 2.748-.497 1.316-.927 2.165-1.29 2.55-.364.383-.807.527-1.33.433-.58-.105-1.043-.431-1.387-.983-.344-.55-.516-1.34-.516-2.37 0-.703.085-1.446.259-2.23.17-.784.407-1.51.706-2.182l-2.16-.388c-.492 1.055-.738 2.483-.738 4.279 0 1.796.355 3.27 1.06 4.418.71 1.15 1.685 1.836 2.93 2.06M349.48 377.517l13.985 3.071v-2.596l-13.984-3.07zM356.472 384.691c-2.282-.535-4.051-.297-5.303.714-1.254 1.01-1.88 2.717-1.88 5.124 0 1.019.058 1.985.173 2.891.114.908.309 1.873.582 2.893l7.023 1.645v-5.848l-1.962-.46v3.294l-3.607-.845c-.184-1-.276-1.92-.276-2.76 0-1.666.445-2.84 1.333-3.519.89-.678 2.19-.819 3.9-.418 1.624.38 2.907 1.175 3.843 2.378.939 1.206 1.407 2.657 1.407 4.353a8.919 8.919 0 01-.784 3.685l1.902 1.358c.562-1.354.842-2.861.842-4.521 0-2.578-.635-4.752-1.908-6.521-1.271-1.768-3.033-2.915-5.285-3.443M349.48 411.889v3.183l13.985 4.042v-2.38l-7.327-2.117a53.9 53.9 0 00-2.156-.558 64.21 64.21 0 00-1.604-.376v-.065l11.088-4.59v-3.148l-13.985-4.043v2.358l7.27 2.1c.982.285 2.066.547 3.252.789l.623.124v.087zM355.334 434.18l3.645 2.39c.931.618 1.788 1.13 2.573 1.53-.256.006-.658.033-1.206.082-.548.048-.949.093-1.205.134l-3.807.492zm-5.854-3.849l3.884 2.57v6.076l-3.883.57v2.761l14.042-2.269v-2.826l-14.042-9.62zM357.822 458.024l-8.341.075v2.825l13.985 8.533v-2.628l-8.131-4.815c-1.41-.857-2.57-1.483-3.482-1.876 1.51.19 2.647.28 3.406.264l8.207-.073v-2.575l-8.17-5.153c-.413-.26-.956-.575-1.625-.946-.67-.37-1.275-.68-1.818-.93 1.002.164 2.155.272 3.463.329l8.15.288v-2.651l-6.983-.108-7.002-.145v2.826l8.303 5.236c.318.21.803.498 1.454.866.65.367 1.179.65 1.587.853-.267-.05-.744-.094-1.43-.135a25.448 25.448 0 00-1.573-.06M355.334 474.296l3.645 2.707c.931.7 1.788 1.286 2.573 1.756a20.572 20.572 0 00-1.206-.024c-.548 0-.949.01-1.205.03l-3.807.16zm-5.854-4.359l3.884 2.908v6.076l-3.883.231v2.761l14.042-1.044v-2.825l-14.042-10.846zM356.96 491.46l4.573 1.757v1.717c0 1.18-.172 1.999-.516 2.453-.345.455-.912.53-1.703.226-.778-.3-1.365-.795-1.76-1.49s-.593-1.65-.593-2.858zm-7.48-2.871l5.587 2.145v2.564l-5.586 1.659v2.956l6.188-2.111c.74 2.34 1.98 3.847 3.72 4.515 1.367.525 2.386.422 3.062-.302.677-.726 1.014-2.114 1.014-4.165v-4.488l-13.984-5.37zM351.404 505.51l10.148 4.429v2.249c0 3.559-1.675 4.606-5.02 3.146-3.42-1.492-5.128-4.15-5.128-7.976zm-1.924 1.009c0 2.739.611 5.102 1.832 7.093 1.221 1.987 2.986 3.486 5.295 4.494 2.174.949 3.861.98 5.06.099 1.198-.882 1.798-2.588 1.798-5.115v-4.912l-13.985-6.103z"/><g opacity=".4"><clipPath id="b"><path transform="matrix(1 0 0 -1 0 841.89)" d="M84.358 70.841h347.615v24.2H84.358z"/></clipPath><g clip-path="url(#b)"><symbol id="c"><path d="M.083 0v.265h.185C.4.265.477.357.477.466c0 .109-.075.201-.209.201H0V0h.083m.175.339H.083v.254h.175C.337.593.391.541.391.466.391.391.337.339.258.339z"/></symbol><symbol id="d"><path d="M.484 0l-.18.272a.184.184 0 01.173.194C.477.589.39.667.268.667H0V0h.083v.265h.133L.386 0h.098M.258.338H.083v.255h.175C.337.593.391.541.391.466.391.391.337.338.258.338z"/></symbol><symbol id="e"><path d="M.331 0c.197 0 .331.148.331.345C.662.542.528.69.331.69.133.69 0 .542 0 .345 0 .148.133 0 .331 0m0 .074C.181.074.086.19.086.345c0 .156.095.271.245.271C.48.616.576.501.576.345.576.19.48.074.331.074z"/></symbol><symbol id="f"><path d="M.272 0c.181 0 .272.106.272.272v.407H.461V.273C.461.151.395.074.272.074S.083.151.083.273v.406H0V.271C0 .107.091 0 .272 0z"/></symbol><symbol id="g"><path d="M.228 0C.435 0 .57.143.57.333.57.522.435.667.228.667H0V0h.228m0 .074H.083v.519h.145c.165 0 .256-.116.256-.26C.484.19.39.074.228.074z"/></symbol><symbol id="h"><path d="M.393 0v.074h-.31v.593H0V0h.393z"/></symbol><symbol id="i"><path d="M.346 0v.282l.262.385H.511L.304.357l-.207.31H0L.263.282V0h.083z"/></symbol><symbol id="k"><path d="M.64 0L.371.667H.268L0 0h.095l.059.148h.332L.545 0H.64M.461.222H.178L.32.581.461.222z"/></symbol><symbol id="l"><path d="M.664 0l.19.667H.762L.615.111.462.667H.393L.24.111.092.667H0L.19 0h.09l.147.538L.574 0h.09z"/></symbol><symbol id="m"><path d="M.437 0v.074H.083v.23H.43v.074H.083v.215h.354v.074H0V0h.437z"/></symbol><symbol id="n"><path d="M.304 0c.122 0 .193.073.193.18 0 .08-.059.153-.13.164a.152.152 0 01.117.153c0 .1-.071.17-.187.17H0V0h.304M.283.378h-.2v.215h.2C.358.593.398.545.398.485.398.424.358.378.283.378M.287.074H.083v.23h.204C.369.304.411.25.411.189.411.118.365.074.287.074z"/></symbol><symbol id="o"><path d="M.294 0v.593h.212v.074H0V.593h.211V0h.083z"/></symbol><symbol id="p"><path d="M.556 0v.667H.473V.38h-.39v.287H0V0h.083v.306h.39V0h.083z"/></symbol><symbol id="q"><path d="M.343 0c.118 0 .198.056.254.132L.526.171A.222.222 0 00.343.074C.197.074.086.187.086.345c0 .159.111.271.257.271A.225.225 0 00.526.519l.07.039A.298.298 0 01.343.69.334.334 0 010 .345C0 .14.151 0 .343 0z"/></symbol><symbol id="r"><path d="M.256 0c.18 0 .246.099.246.196 0 .249-.395.163-.395.313 0 .063.057.106.137.106a.255.255 0 00.193-.08l.05.061A.314.314 0 01.25.689C.119.689.021.614.021.504c0-.238.395-.143.395-.315C.416.138.378.074.259.074a.282.282 0 00-.21.095L0 .106A.33.33 0 01.256 0z"/></symbol><symbol id="s"><path d="M.083 0v.667H0V0h.083z"/></symbol><symbol id="t"><path d="M.343 0c.109 0 .2.046.262.115v.241H.293V.282h.229V.146A.263.263 0 00.343.074C.197.074.086.188.086.346c0 .159.111.271.257.271.08 0 .151-.038.193-.092l.066.041a.318.318 0 01-.259.125A.334.334 0 010 .346C0 .139.153 0 .343 0z"/></symbol><symbol id="u"><path d="M.552 0v.667H.469V.146L.085.667H0V0h.083v.532L.472 0h.08z"/></symbol><symbol id="v"><path d="M.653 0v.667H.534L.326.165.119.667H0V0h.083v.549L.309 0h.034L.57.549V0h.083z"/></symbol><use xlink:href="#c" transform="matrix(9 0 0 -9 85.06 754.35)"/><use xlink:href="#d" transform="matrix(9 0 0 -9 91.243 754.35)"/><use xlink:href="#e" transform="matrix(9 0 0 -9 97.372 754.458)"/><use xlink:href="#f" transform="matrix(9 0 0 -9 105.4 754.458)"/><use xlink:href="#g" transform="matrix(9 0 0 -9 112.6 754.35)"/><use xlink:href="#h" transform="matrix(9 0 0 -9 119.8 754.35)"/><use xlink:href="#i" transform="matrix(9 0 0 -9 123.562 754.35)"/><use xlink:href="#j" transform="matrix(9 0 0 -9 130.015 754.35)"/><use xlink:href="#k" transform="matrix(9 0 0 -9 133.318 754.35)"/><use xlink:href="#l" transform="matrix(9 0 0 -9 139.762 754.35)"/><use xlink:href="#k" transform="matrix(9 0 0 -9 148.14 754.35)"/><use xlink:href="#d" transform="matrix(9 0 0 -9 155.583 754.35)"/><use xlink:href="#g" transform="matrix(9 0 0 -9 161.955 754.35)"/><use xlink:href="#m" transform="matrix(9 0 0 -9 169.155 754.35)"/><use xlink:href="#g" transform="matrix(9 0 0 -9 175.176 754.35)"/><use xlink:href="#j" transform="matrix(9 0 0 -9 181.674 754.35)"/><use xlink:href="#n" transform="matrix(9 0 0 -9 185.598 754.35)"/><use xlink:href="#i" transform="matrix(9 0 0 -9 191.268 754.35)"/><use xlink:href="#j" transform="matrix(9 0 0 -9 197.721 754.35)"/><use xlink:href="#o" transform="matrix(9 0 0 -9 201.231 754.35)"/><use xlink:href="#p" transform="matrix(9 0 0 -9 207.675 754.35)"/><use xlink:href="#m" transform="matrix(9 0 0 -9 214.983 754.35)"/><use xlink:href="#j" transform="matrix(9 0 0 -9 220.302 754.35)"/><use xlink:href="#q" transform="matrix(9 0 0 -9 223.983 754.458)"/><use xlink:href="#r" transform="matrix(9 0 0 -9 230.85 754.458)"/><use xlink:href="#r" transform="matrix(9 0 0 -9 237.024 754.458)"/><use xlink:href="#j" transform="matrix(9 0 0 -9 242.856 754.35)"/><use xlink:href="#g" transform="matrix(9 0 0 -9 246.78 754.35)"/><use xlink:href="#m" transform="matrix(9 0 0 -9 253.98 754.35)"/><use xlink:href="#r" transform="matrix(9 0 0 -9 259.641 754.458)"/><use xlink:href="#s" transform="matrix(9 0 0 -9 266.175 754.35)"/><use xlink:href="#t" transform="matrix(9 0 0 -9 268.983 754.467)"/><use xlink:href="#u" transform="matrix(9 0 0 -9 276.543 754.35)"/><use xlink:href="#j" transform="matrix(9 0 0 -9 283.113 754.35)"/><use xlink:href="#k" transform="matrix(9 0 0 -9 286.416 754.35)"/><use xlink:href="#l" transform="matrix(9 0 0 -9 292.86 754.35)"/><use xlink:href="#k" transform="matrix(9 0 0 -9 301.238 754.35)"/><use xlink:href="#d" transform="matrix(9 0 0 -9 308.681 754.35)"/><use xlink:href="#g" transform="matrix(9 0 0 -9 315.053 754.35)"/><use xlink:href="#r" transform="matrix(9 0 0 -9 321.893 754.458)"/><use xlink:href="#j" transform="matrix(9 0 0 -9 327.725 754.35)"/><use xlink:href="#q" transform="matrix(9 0 0 -9 331.406 754.458)"/><use xlink:href="#e" transform="matrix(9 0 0 -9 338.39 754.458)"/><use xlink:href="#v" transform="matrix(9 0 0 -9 346.418 754.35)"/><use xlink:href="#v" transform="matrix(9 0 0 -9 354.6 754.35)"/><use xlink:href="#f" transform="matrix(9 0 0 -9 362.78 754.458)"/><use xlink:href="#u" transform="matrix(9 0 0 -9 369.98 754.35)"/><use xlink:href="#s" transform="matrix(9 0 0 -9 377.252 754.35)"/><use xlink:href="#o" transform="matrix(9 0 0 -9 379.89 754.35)"/><use xlink:href="#i" transform="matrix(9 0 0 -9 385.712 754.35)"/></g></g><g opacity=".4"><clipPath id="w"><path transform="matrix(1 0 0 -1 0 841.89)" d="M421.525 85.153h96.129v96.146h-96.129z"/></clipPath><g clip-path="url(#w)"><path d="M476.652 701.986l-5.669-5.593-5.562 5.593h-3.182l11.817-11.78h-12.4l-11.86 11.78h-4.485v.822h48.495v-.822zM445.312 715.412h17.03l5.539 5.532 5.639-5.532h3.027l-11.741 11.684 12.4.002 6.174-6.111 5.618-5.575h4.809v-.822h-48.495zM454.701 707.115c.233 0 .451.033.654.098s.406.145.61.24l.453-1.168a3.906 3.906 0 00-1.702-.387c-.544 0-1.017.115-1.419.347-.402.232-.71.563-.924.994-.214.431-.32.931-.32 1.499 0 .91.22 1.605.662 2.086.442.481 1.078.722 1.907.722.58 0 1.097-.102 1.556-.305v-1.255a7 7 0 01-.688.244 2.455 2.455 0 01-.706.102c-.805 0-1.207-.529-1.207-1.586 0-.509.1-.908.297-1.197a.948.948 0 01.827-.434M461.281 710.34c-.255 0-.536-.042-.842-.123a4.425 4.425 0 01-.883-.34v1.323c.268.127.526.217.774.268.248.052.555.077.921.077.438 0 .82-.073 1.146-.22.326-.146.575-.35.748-.616.173-.264.259-.566.259-.907 0-.37-.092-.679-.276-.923-.184-.244-.513-.473-.986-.686-.494-.225-.797-.38-.908-.466-.111-.085-.167-.18-.167-.289 0-.1.044-.184.131-.252.088-.067.228-.1.421-.1.373 0 .817.117 1.33.352l.455-1.146c-.591-.263-1.171-.395-1.74-.395-.644 0-1.15.142-1.518.425-.368.283-.552.678-.552 1.184 0 .27.043.505.129.702.087.198.22.374.399.527.179.152.448.31.806.473a8.6 8.6 0 01.731.353.735.735 0 01.199.171.329.329 0 01.062.198.35.35 0 01-.154.294c-.103.077-.265.115-.485.115M468.286 710.34a3.31 3.31 0 01-.842-.123 4.425 4.425 0 01-.883-.34v1.323c.268.127.526.217.774.268.248.052.555.077.92.077.439 0 .82-.073 1.147-.22.326-.146.575-.35.748-.616.173-.264.259-.566.259-.907 0-.37-.092-.679-.276-.923-.184-.244-.513-.473-.986-.686-.494-.225-.797-.38-.908-.466-.111-.085-.167-.18-.167-.289 0-.1.044-.184.13-.252.089-.067.229-.1.422-.1.373 0 .817.117 1.33.352l.455-1.146c-.591-.263-1.171-.395-1.74-.395-.644 0-1.15.142-1.518.425-.368.283-.552.678-.552 1.184 0 .27.043.505.129.702.087.198.22.374.399.527.179.152.448.31.806.473a8.6 8.6 0 01.73.353.735.735 0 01.2.171.329.329 0 01.062.198.35.35 0 01-.154.294c-.103.077-.265.115-.485.115M476.628 709.86c-.21.262-.54.393-.992.393h-.33v-3.078h.431c.406 0 .71.122.908.364.2.244.298.617.298 1.12 0 .54-.105.94-.315 1.201m1.856-1.253c0-.852-.24-1.503-.719-1.954-.48-.45-1.16-.677-2.043-.677h-1.9v5.494h1.776c.915 0 1.624-.248 2.13-.744.504-.496.756-1.202.756-2.119M484.097 707.49c.066-.292.11-.503.133-.63.025.137.077.365.156.684.079.318.146.577.2.777l.238.902h-1.17c.229-.861.377-1.44.443-1.732m1.035 2.95l.27 1.03h1.624l-1.815-5.517h-1.98l-1.793 5.517h1.63l.279-1.03z" fill="#231f20"/><use xlink:href="#e" transform="scale(9 -9) rotate(27.035 180.658 66.212)" fill="#231f20"/><symbol id="x"><path d="M.083 0v.304H.43v.074H.083v.215h.354v.074H0V0h.083z"/></symbol><use xlink:href="#x" transform="scale(9 -9) rotate(17.276 270.49 129.439)" fill="#231f20"/><use xlink:href="#x" transform="scale(9 -9) rotate(8.867 504.857 293.515)" fill="#231f20"/><use xlink:href="#s" transform="scale(9 -9) rotate(2.403 1795.952 1201.284)" fill="#231f20"/><use xlink:href="#q" transform="scale(9 -9) rotate(-4.714 -875.654 -672.001)" fill="#231f20"/><use xlink:href="#s" transform="scale(9 -9) rotate(-11.968 -327.958 -290.313)" fill="#231f20"/><use xlink:href="#k" transform="scale(9 -9) rotate(-19.138 -193.907 -195.42)" fill="#231f20"/><use xlink:href="#h" transform="scale(9 -9) rotate(-27.992 -122.724 -145.922)" fill="#231f20"/><use xlink:href="#j" transform="scale(9 -9) rotate(-34.3 -94.115 -125.944)" fill="#231f20"/><use xlink:href="#j" transform="scale(9 -9) rotate(-39.103 -78.355 -114.895)" fill="#231f20"/><use xlink:href="#q" transform="scale(9 -9) rotate(-46.409 -60.36 -102.137)" fill="#231f20"/><use xlink:href="#r" transform="scale(9 -9) rotate(-55.742 -43.981 -90.711)" fill="#231f20"/><use xlink:href="#r" transform="scale(9 -9) rotate(-64.578 -32.53 -82.703)" fill="#231f20"/><use xlink:href="#g" transform="scale(9 -9) rotate(-74.146 -22.898 -75.97)" fill="#231f20"/><use xlink:href="#k" transform="scale(9 -9) rotate(-83.658 -15.218 -70.59)" fill="#231f20"/><use xlink:href="#j" transform="scale(-9 9) rotate(89.072 -68.323 10.532)" fill="#231f20"/><use xlink:href="#j" transform="scale(-9 9) rotate(84.426 -71.91 8.29)" fill="#231f20"/><use xlink:href="#q" transform="scale(-9 9) rotate(77.046 -78.224 4.174)" fill="#231f20"/><use xlink:href="#m" transform="scale(-9 9) rotate(67.732 -88.007 -1.912)" fill="#231f20"/><use xlink:href="#d" transform="scale(-9 9) rotate(58.845 -99.777 -9.344)" fill="#231f20"/><use xlink:href="#o" transform="scale(-9 9) rotate(50.13 -114.97 -18.943)" fill="#231f20"/><use xlink:href="#s" transform="scale(-9 9) rotate(43.591 -130.16 -28.173)" fill="#231f20"/><use xlink:href="#x" transform="scale(-9 9) rotate(37.134 -149.913 -40.838)" fill="#231f20"/><use xlink:href="#s" transform="scale(-9 9) rotate(30.677 -177.823 -58.06)" fill="#231f20"/><use xlink:href="#q" transform="scale(-9 9) rotate(23.409 -226.833 -89.483)" fill="#231f20"/><use xlink:href="#k" transform="scale(-9 9) rotate(13.58 -375.529 -183.342)" fill="#231f20"/><use xlink:href="#o" transform="scale(-9 9) rotate(5.256 -932.779 -534.01)" fill="#231f20"/><use xlink:href="#m" transform="scale(-9 9) rotate(-3.264 1434.776 956.135)" fill="#231f20"/><use xlink:href="#j" transform="scale(-9 9) rotate(-9.947 452.281 337.58)" fill="#231f20"/><use xlink:href="#j" transform="scale(-9 9) rotate(-14.784 294.822 238.673)" fill="#231f20"/><use xlink:href="#e" transform="scale(-9 9) rotate(-22.706 181.362 167.872)" fill="#231f20"/><use xlink:href="#x" transform="scale(-9 9) rotate(-32.448 117.065 127.11)" fill="#231f20"/><use xlink:href="#j" transform="scale(-9 9) rotate(-39.018 91.465 110.93)" fill="#231f20"/><use xlink:href="#j" transform="scale(-9 9) rotate(-43.804 77.512 102.16)" fill="#231f20"/><use xlink:href="#m" transform="scale(-9 9) rotate(-50.469 62.335 92.681)" fill="#231f20"/><symbol id="y"><path d="M.627 0L.368.343l.244.324H.511L.314.4.116.667H.015L.26.342 0 0h.101l.213.284L.527 0h.1z"/></symbol><use xlink:href="#y" transform="scale(-9 9) rotate(-59.538 46.841 82.992)" fill="#231f20"/><use xlink:href="#q" transform="scale(-9 9) rotate(-68.965 34.653 75.31)" fill="#231f20"/><use xlink:href="#m" transform="scale(-9 9) rotate(-78.3 25.148 69.286)" fill="#231f20"/><use xlink:href="#h" transform="scale(-9 9) rotate(-86.555 18.21 64.915)" fill="#231f20"/><use xlink:href="#h" transform="scale(9 -9) rotate(85.694 66.186 -13.593)" fill="#231f20"/><use xlink:href="#m" transform="scale(9 -9) rotate(77.449 72.473 -9.218)" fill="#231f20"/><use xlink:href="#u" transform="scale(9 -9) rotate(67.909 81.343 -3.09)" fill="#231f20"/><use xlink:href="#q" transform="scale(9 -9) rotate(57.767 93.52 5.404)" fill="#231f20"/><use xlink:href="#m" transform="scale(9 -9) rotate(48.543 108.498 15.996)" fill="#231f20"/></g></g><g opacity=".55"><clipPath id="z"><path transform="matrix(1 0 0 -1 0 841.89)" d="M84.36 747.414h108.01v13.266H84.36z"/></clipPath><g clip-path="url(#z)"><symbol id="A"><path d="M.055.39C.085.39.11.415.11.445S.085.5.055.5A.055.055 0 010 .445C0 .415.025.39.055.39m0-.39C.085 0 .11.025.11.055S.085.11.055.11A.055.055 0 010 .055C0 .025.025 0 .055 0z"/></symbol><use xlink:href="#k" transform="matrix(12 0 0 -12 84.468 91.212)"/><use xlink:href="#l" transform="matrix(12 0 0 -12 93.06 91.212)"/><use xlink:href="#k" transform="matrix(12 0 0 -12 104.232 91.212)"/><use xlink:href="#d" transform="matrix(12 0 0 -12 114.156 91.212)"/><use xlink:href="#g" transform="matrix(12 0 0 -12 122.652 91.212)"/><use xlink:href="#m" transform="matrix(12 0 0 -12 132.252 91.212)"/><use xlink:href="#g" transform="matrix(12 0 0 -12 140.28 91.212)"/><use xlink:href="#j" transform="matrix(12 0 0 -12 148.944 91.212)"/><use xlink:href="#o" transform="matrix(12 0 0 -12 153.624 91.212)"/><use xlink:href="#e" transform="matrix(12 0 0 -12 161.567 91.356)"/><use xlink:href="#A" transform="matrix(12 0 0 -12 172.055 91.332)"/><use xlink:href="#j" transform="matrix(12 0 0 -12 175.295 91.212)"/></g></g></g><clipPath id="B"><path transform="matrix(1 0 0 -1 0 841.89)" d="M0 841.89h595.28V0H0z"/></clipPath><g clip-path="url(#B)"><path d="M84.444 110.598l.868-1.527c.364.35.841.673 1.486.673.881 0 1.457-.589 1.457-1.5v-6.247h1.988v6.276c0 2.213-1.372 3.235-3.29 3.235-.94 0-1.836-.252-2.509-.91M96.894 103.987l-1.457 4.02h2.913zm2.577 7.354l-.574-1.583H94.89l-.588 1.583h-2.27l3.615-9.343h2.493l3.6 9.343zM103.08 106.676c0-2.872 2.17-4.833 4.972-4.833 2.058 0 3.25 1.12 3.908 2.283l-1.709.841c-.393-.757-1.234-1.359-2.199-1.359-1.696 0-2.928 1.302-2.928 3.068 0 1.765 1.232 3.067 2.928 3.067.965 0 1.806-.588 2.2-1.359l1.708.827c-.673 1.162-1.85 2.297-3.908 2.297-2.802 0-4.973-1.96-4.973-4.832M113.915 110.024l1.079-1.513a4.098 4.098 0 002.97 1.26c1.092 0 1.624-.504 1.624-1.036 0-1.652-5.379-.52-5.379-4.034 0-1.555 1.345-2.844 3.544-2.844 1.485 0 2.718.448 3.642 1.303l-1.106 1.457c-.757-.7-1.766-1.023-2.718-1.023-.854 0-1.331.378-1.331.939 0 1.484 5.365.49 5.365 3.978 0 1.708-1.218 2.997-3.74 2.997-1.793 0-3.081-.602-3.95-1.484M131.614 106.676c0-1.75-1.12-3.068-2.844-3.068-1.722 0-2.829 1.317-2.829 3.068 0 1.736 1.107 3.067 2.83 3.067s2.843-1.33 2.843-3.067m-7.718 0c0-2.816 2.06-4.833 4.874-4.833 2.83 0 4.89 2.017 4.89 4.833 0 2.815-2.06 4.832-4.89 4.832-2.815 0-4.874-2.017-4.874-4.832M142.898 111.34l-4.455-6.094v6.094h-1.988v-9.343h2.045l4.328 5.87v-5.87h1.99v9.343zM153.045 111.34v-9.343h1.988v7.592h3.95v1.751zM161.432 107.615v-5.617h2.017v5.547c0 1.302.756 2.199 2.199 2.199 1.443 0 2.185-.897 2.185-2.2v-5.546h2.032v5.602c0 2.326-1.373 3.909-4.217 3.909-2.844 0-4.216-1.597-4.216-3.894M173.093 101.998h1.989v9.343h-1.989zM177.698 110.024l1.08-1.513a4.098 4.098 0 002.97 1.26c1.091 0 1.623-.504 1.623-1.036 0-1.652-5.379-.52-5.379-4.034 0-1.555 1.345-2.844 3.544-2.844 1.485 0 2.718.448 3.642 1.303l-1.106 1.457c-.757-.7-1.766-1.023-2.718-1.023-.854 0-1.33.378-1.33.939 0 1.484 5.364.49 5.364 3.978 0 1.708-1.218 2.997-3.74 2.997-1.793 0-3.08-.602-3.95-1.484M198.66 111.34l-2.83-3.74-.729.87v2.87h-1.989v-9.343h1.99v4.174l3.305-4.174h2.451l-3.712 4.384 3.964 4.96zM208.893 105.01c0-.786-.603-1.262-1.4-1.262h-2.088v2.522h2.088c.797 0 1.4-.477 1.4-1.26m-.196 6.33l-1.835-3.319h-1.457v3.32h-1.99v-9.344h4.372c1.947 0 3.137 1.275 3.137 3.012 0 1.652-1.037 2.535-2.045 2.773l2.1 3.558zM219.742 101.395a.952.952 0 01-.952-.952.95.95 0 01.952-.939.95.95 0 01.952.939.952.952 0 01-.952.952m-2.955 0a.944.944 0 01-.953-.952c0-.519.42-.939.953-.939.517 0 .938.42.938.939a.942.942 0 01-.938.952m4.3 5.281c0-1.751-1.12-3.068-2.844-3.068-1.723 0-2.829 1.317-2.829 3.068 0 1.737 1.106 3.068 2.83 3.068 1.723 0 2.843-1.331 2.843-3.068m-7.718 0c0-2.816 2.06-4.833 4.874-4.833 2.83 0 4.89 2.017 4.89 4.833 0 2.816-2.06 4.832-4.89 4.832-2.815 0-4.874-2.016-4.874-4.832M227.749 111.34v-7.592h-2.731v-1.75h7.451v1.75h-2.717v7.592zM234.803 111.34v-1.61l4.413-5.982h-4.413v-1.75h7.019v1.596l-4.414 5.995h4.51v1.751zM86.077 685.887v-17.343h3.692v14.093h7.332v3.25zM107.891 685.887V684.3c-.858.962-2.366 1.898-4.42 1.898-2.756 0-4.056-1.508-4.056-3.952v-8.92h3.302v7.62c0 1.742.91 2.314 2.314 2.314 1.274 0 2.288-.702 2.86-1.43v-8.503h3.302v12.559zM114.469 673.328h3.302v12.559h-3.302zm-.338-3.328c0-1.092.91-1.95 1.975-1.95 1.093 0 1.977.858 1.977 1.95a1.976 1.976 0 01-1.977 1.977 1.992 1.992 0 01-1.975-1.977M119.954 684.249l1.43-2.314c.91.858 2.782 1.715 4.342 1.715 1.43 0 2.106-.571 2.106-1.351 0-2.08-7.462-.39-7.462-5.33 0-2.107 1.846-3.952 5.148-3.952 2.132 0 3.823.727 5.071 1.715l-1.326 2.262c-.754-.806-2.184-1.456-3.719-1.456-1.195 0-1.976.547-1.976 1.248 0 1.872 7.437.313 7.437 5.383 0 2.288-1.95 4.03-5.435 4.03-2.184 0-4.29-.728-5.616-1.95M141.586 685.887l-3.328-4.836-1.508 1.612v3.224h-3.302v-17.343h3.302v10.375l4.758-5.591h4.056l-4.966 5.695 5.122 6.864zM147.358 685.887v-12.56h3.302v1.718c.884-1.118 2.444-2.028 4.004-2.028v3.224a4.377 4.377 0 00-.91-.08c-1.092 0-2.548.625-3.094 1.432v8.294z"/><g opacity=".55"><clipPath id="C"><path transform="matrix(1 0 0 -1 0 841.89)" d="M84.997 193.182h79.328v8.264H84.997z"/></clipPath><g clip-path="url(#C)"><path d="M85.008 648.564v-.792c2.878-2.267 4.438-3.598 4.438-4.978 0-1.018-.84-1.462-1.667-1.462-.96 0-1.704.408-2.17 1.007l-.613-.635c.612-.804 1.655-1.26 2.783-1.26 1.331 0 2.686.756 2.686 2.35 0 1.632-1.655 3.12-3.886 4.882h3.922v.888zM98.326 644.57c0-1.595-.516-3.238-2.039-3.238-1.523 0-2.039 1.643-2.039 3.238 0 1.596.516 3.25 2.04 3.25 1.522 0 2.038-1.654 2.038-3.25m-5.097 0c0-1.955.863-4.126 3.058-4.126 2.183 0 3.06 2.171 3.06 4.126 0 1.943-.877 4.138-3.06 4.138-2.195 0-3.058-2.195-3.058-4.138M101.808 648.564v-.792c2.878-2.267 4.438-3.598 4.438-4.978 0-1.018-.84-1.462-1.667-1.462-.96 0-1.704.408-2.17 1.007l-.613-.635c.612-.804 1.655-1.26 2.783-1.26 1.331 0 2.686.756 2.686 2.35 0 1.632-1.655 3.12-3.886 4.882h3.922v.888zM115.126 644.57c0-1.595-.516-3.238-2.039-3.238-1.523 0-2.039 1.643-2.039 3.238 0 1.596.516 3.25 2.039 3.25 1.523 0 2.039-1.654 2.039-3.25m-5.097 0c0-1.955.863-4.126 3.058-4.126 2.183 0 3.059 2.171 3.059 4.126 0 1.943-.876 4.138-3.059 4.138-2.195 0-3.058-2.195-3.058-4.138M122.389 647.784l.516-.755c.348.42.816.791 1.51.791.984 0 1.608-.683 1.608-1.679v-5.577h.995v5.59c0 1.738-1.115 2.554-2.542 2.554-.852 0-1.535-.276-2.087-.924M130.092 645.458v-4.894h.996v4.87c0 1.463.791 2.386 2.266 2.386s2.267-.923 2.267-2.386v-4.87h.995v4.882c0 1.991-1.09 3.262-3.262 3.262-2.17 0-3.262-1.283-3.262-3.25M145.352 648.564l-4.665-6.38v6.38h-.996v-8h1.02l4.605 6.25v-6.25h.995v8zM154.883 648.564v-6.68l-1.283 1.355-.6-.612 2.003-2.063h.876v8zM162.202 641.488l-2.806 4.174h2.806zm0 7.076v-2.027H158.4v-.827l3.43-5.146h1.368v5.098h1.127v.875h-1.127v2.027z"/></g></g></g></g></svg>