<svg xmlns="http://www.w3.org/2000/svg" xmlns:xlink="http://www.w3.org/1999/xlink" width="793.707" height="1122.52" viewBox="0 0 595.28 841.89"><g data-name="Layer"><path d="M0 841.89h595.275V0H0z" fill="#d86b54"/><clipPath id="a"><path transform="matrix(1 0 0 -1 0 841.89)" d="M0 841.89h595.28V0H0z"/></clipPath><g clip-path="url(#a)"><path d="M488.236 587.338l-39.023-3.034-40.192-78.405-.678-.053c.948 11.914 1.421 20.99 1.418 27.226l-.023 48.163-26.367-2.05.051-106.85 38.872 3.022 40.043 77.37.452.035c-.699-10.822-1.046-19.497-1.043-26.027l.023-48.31 26.518 2.063z" fill="#f0f0f2"/><path stroke-width="2" stroke-miterlimit="10" fill="none" stroke="#272727" d="M488.236 587.338l-39.023-3.034-40.192-78.405-.678-.053c.948 11.914 1.421 20.99 1.418 27.226l-.023 48.163-26.367-2.05.051-106.85 38.872 3.022 40.043 77.37.452.035c-.699-10.822-1.046-19.497-1.043-26.027l.023-48.31 26.518 2.063-.05 106.85z"/><path d="M471.736 597.101l-39.023-3.034-40.192-78.405-.678-.053c.948 11.914 1.42 20.99 1.418 27.226l-.023 48.163-26.367-2.05.05-106.85 38.873 3.022 40.043 77.37.452.035c-.7-10.822-1.046-19.497-1.043-26.027l.023-48.309 26.518 2.062z" fill="#f0f0f2"/><path stroke-width="2" stroke-miterlimit="10" fill="none" stroke="#272727" d="M471.736 597.101l-39.023-3.034-40.192-78.405-.678-.053c.948 11.914 1.42 20.99 1.418 27.226l-.023 48.163-26.367-2.05.05-106.85 38.873 3.022 40.043 77.37.452.035c-.7-10.822-1.046-19.497-1.043-26.027l.023-48.309 26.518 2.062-.051 106.85z"/><path d="M455.235 606.865l-39.023-3.034-40.192-78.405-.678-.053c.948 11.914 1.421 20.99 1.418 27.226l-.023 48.163-26.367-2.05.051-106.85 38.872 3.022 40.043 77.37.452.035c-.699-10.822-1.046-19.497-1.043-26.027l.023-48.31 26.518 2.063z" fill="#f0f0f2"/><path stroke-width="2" stroke-miterlimit="10" fill="none" stroke="#272727" d="M455.235 606.865l-39.023-3.034-40.192-78.405-.678-.053c.948 11.914 1.421 20.99 1.418 27.226l-.023 48.163-26.367-2.05.051-106.85 38.872 3.022 40.043 77.37.452.035c-.699-10.822-1.046-19.497-1.043-26.027l.023-48.31 26.518 2.063-.05 106.85z"/><path d="M349.414 490.78l33-19.62 41.961 3.424-34.453 19.349z" fill="#f0f0f2"/><path d="M390.769 495.535l33.054-19.829-.921-1.766-32.98 19.993zM382.414 471.161l-33 19.62 2.449.19 33.11-19.722z" fill="#272727"/><path d="M382.414 471.161l40.488 2.78-2.314 1.371-40.498-2.745z" fill="#272727"/><path stroke-width="2" stroke-miterlimit="10" fill="none" stroke="#272727" d="M400.88 357.511h0z"/><path d="M427.774 496.87l33.01-19.54 28.51 2.223-33.032 19.544z" fill="#f0f0f2"/><path d="M456.277 501.115l33.018-19.548v-2.014l-33.033 19.544z" fill="#272727"/><path d="M489.295 479.554l-28.512-2.223-1.78 1.053 28.5 2.229z" fill="#272727"/><path d="M460.784 477.33l-33.01 19.54 1.937.162 33.042-19.548z" fill="#272727"/><path d="M431.575 381.73l30.042-2.85-.204-23.923-93.502 8.87.204 23.922 30.127-2.858-.116 84.436 33.52-3.18z" fill="#f0f0f2"/><path stroke-width="2" stroke-miterlimit="10" fill="none" stroke="#272727" d="M431.575 381.73l30.042-2.85-.204-23.923-93.502 8.87.204 23.922 30.127-2.858-.116 84.436 33.52-3.18-.07-84.418z"/><path d="M449.62 391.598l30.041-2.85-.204-23.922-93.502 8.87.204 23.922 30.127-2.858-.116 84.436 33.52-3.18z" fill="#f0f0f2"/><path stroke-width="2" stroke-miterlimit="10" fill="none" stroke="#272727" d="M449.62 391.598l30.041-2.85-.204-23.922-93.502 8.87.204 23.922 30.127-2.858-.116 84.436 33.52-3.18-.07-84.418z"/><path d="M398.123 469.833l.108-73.336 18.053-1.716-.123 84.433-.751.053z" fill="#f0f0f2"/><path d="M417.287 393.682l-20.054 1.905-.11 74.839 18.066 9.86 1.97-.14zm-2.003 2.199l-.121 82.112-16.038-8.753.106-71.834z" fill="#272727"/><path d="M385.365 397.693c-4.585-2.275-15.049-8.085-17.484-9.441V364.6l18.09 9.016.185 24.003-.79.073" fill="#f0f0f2"/><path d="M366.881 362.985v25.855s13.204 7.376 18.293 9.875a119.6 119.6 0 001.99-.188l-.197-25.531zm2 3.232l16.095 8.022.171 22.226c-4.539-2.301-13.284-7.143-16.266-8.801v-21.447" fill="#272727"/><path d="M318.495 572.999c-92.195 0-167.021-52.106-167.021-108.243h58.04c0 36.619 48.753 66.305 108.893 66.305z" fill="#f0f0f2"/><path stroke-width="2" stroke-miterlimit="10" fill="none" stroke="#272727" d="M318.495 572.999c-92.195 0-167.021-52.106-167.021-108.243h58.04c0 36.619 48.753 66.305 108.893 66.305l.088 41.938z"/><path d="M301.568 582.827c-92.195 0-167.021-52.106-167.021-108.243h58.04c0 36.619 48.753 66.305 108.893 66.305z" fill="#f0f0f2"/><path stroke-width="2" stroke-miterlimit="10" fill="none" stroke="#272727" d="M301.568 582.827c-92.195 0-167.021-52.106-167.021-108.243h58.04c0 36.619 48.753 66.305 108.893 66.305l.088 41.938z"/><path d="M284.64 592.655c-92.194 0-167.02-52.106-167.02-108.243h58.04c0 36.619 48.753 66.305 108.893 66.305z" fill="#f0f0f2"/><path stroke-width="2" stroke-miterlimit="10" fill="none" stroke="#272727" d="M284.64 592.655c-92.194 0-167.02-52.106-167.02-108.243h58.04c0 36.619 48.753 66.305 108.893 66.305l.088 41.938z"/><path d="M116.627 483.404l30.281-17.661h61.995l-32.179 17.66zM209.917 466.334l-34.257 18.078" fill="#f0f0f2"/><path stroke-width="2" stroke-miterlimit="10" fill="none" stroke="#272727" d="M209.917 466.334l-34.257 18.078"/><path d="M117.436 484.872l-.809-1.469 24.422-15.26 1.041 1.706z" fill="#272727"/><path d="M154.135 498.708c.088.311.186.743.264 1.317.2 1.455-.019 2.617-.653 3.453-.597.787-1.547 1.272-2.828 1.441-1.461.205-2.646-.028-3.52-.692-.883-.668-1.433-1.762-1.638-3.252a14.142 14.142 0 01-.115-1.087zm-2.819 8.722c1.924-.267 3.374-1.09 4.306-2.446.911-1.3 1.2-3.043.888-5.323a22.777 22.777 0 00-.704-3.279l-.114-.385-12.365 1.718.01.416c.02.848.103 1.804.245 2.843.334 2.43 1.228 4.263 2.585 5.297.773.6 1.69.985 2.718 1.152a8.167 8.167 0 002.431.007M156.296 517.18l1.919-1.067-2.232-4.058 2.47-1.374 2.359 4.291 1.934-1.076-3.548-6.453-11.19 6.224 3.677 6.685 1.934-1.076-2.487-4.523 2.933-1.63zM163.454 523.277c-.529-1.817-.35-2.345.218-2.784a1.19 1.19 0 01.905-.233c.426.065.847.356 1.218.842.554.728.76 1.453.835 1.932l.086.546 2.13-.731-.053-.38c-.067-.484-.316-1.473-1.227-2.667-.75-.983-1.682-1.616-2.694-1.832a3.431 3.431 0 00-2.847.657c-1.376 1.063-1.676 2.722-.92 5.059.495 1.686.26 2.259-.348 2.728-.363.279-.768.375-1.176.289-.453-.101-.9-.427-1.293-.944a5.04 5.04 0 01-.965-2.43l-.06-.601-2.139.813.023.345c.058.888.608 2.176 1.337 3.132 1.141 1.494 2.444 2.092 3.636 2.092.837 0 1.62-.295 2.251-.783 1.842-1.422 1.581-3.351 1.083-5.05M172.917 525.192l-9.49 8.622 1.645 1.834 9.49-8.623zM177.804 536.791l-1.318 1.72 1.907 1.481-1.686 2.195c-.266-.106-.713-.334-1.356-.834-.982-.764-1.564-1.71-1.68-2.737-.119-1.05.251-2.169 1.07-3.237 1.624-2.114 3.94-2.413 6.043-.779.966.751 1.383 1.395 1.638 1.873l.251.467 1.802-1.31-.175-.353c-.293-.593-1.01-1.537-2.137-2.413-3.244-2.522-7.053-2.118-9.479 1.007-1.171 1.526-1.712 3.306-1.483 4.888.247 1.642 1.139 3.04 2.726 4.274a11.4 11.4 0 003.422 1.797l.31.101 3.968-5.166zM191.847 545.894a74.428 74.428 0 00-1.463 2.371c.05-.739.075-1.509.08-2.32l.052-7.403-2.01-1.3-6.919 10.82 1.993 1.288 2.993-4.68c.606-.95 1.105-1.753 1.558-2.507a49.77 49.77 0 00-.089 2.614l-.092 7.4 1.908 1.235 6.917-10.82-1.992-1.288zM207.099 555.883l2.054-2.183c.139-.152.274-.306.405-.456-.03.205-.054.417-.077.637l-.31 2.963zm-6.47 3.484l2.329 1.08 2.683-2.891 3.216 1.492-.41 3.943 2.374 1.102 1.39-13.523-2.28-1.058zM230.14 556.86l-3.496 5.571-.113.185c-.321.523-.634 1.034-.935 1.536.064-.669.117-1.336.163-1.96l.47-6.579-2.214-.707-3.513 5.562c-.39.62-.77 1.222-1.12 1.801.062-.668.12-1.372.172-2.073l.499-6.552-2.46-.786-.771 13.254 2.206.703 3.668-5.705c.342-.518.648-.998.933-1.466a59.095 59.095 0 00-.135 1.7l-.466 6.746 2.207.705 7.322-11.164zM239.28 566.178l-2.218-.543 1.6-2.538c.103-.17.205-.344.31-.524.011.207.025.42.044.638zm-.653-7.34l-7.247 11.465 2.491.61 2.08-3.354 3.442.842.348 3.949 2.54.622-1.215-13.536zM253.465 565.726c-.08.525-.338.937-.747 1.19-.438.272-1.029.36-1.71.257l-1.092-.166.523-3.468c.253.004.607.03 1.043.098 1.488.244 2.154.947 1.983 2.089m-1.768-4.196c-1.106-.17-2.242-.246-3.035-.203l-.377.019-1.882 12.477 2.43.37.77-5.111.952.145c1.003.192 1.53.588 1.63 2.228.13 1.83.24 2.692.39 3.074l.097.25 2.595.396-.26-.734c-.159-.444-.267-1.683-.392-3.254-.079-1.062-.373-1.882-.88-2.45 1.19-.485 1.984-1.491 2.184-2.816.158-1.051-.085-2.028-.683-2.746-.709-.872-1.8-1.38-3.539-1.645M268.625 569.498c-.14 3.003-1.8 4.526-4.798 4.377a13.69 13.69 0 01-1.084-.085l.4-8.61c.32-.03.763-.05 1.336-.021 1.46.068 2.554.498 3.255 1.278.661.734.96 1.763.891 3.06m.925-4.64c-1.105-1.138-2.754-1.743-5.042-1.852a22.266 22.266 0 00-3.332.097l-.396.04-.585 12.54.407.068c.83.135 1.781.229 2.824.279.415.019.815.02 1.2 0 1.882-.09 3.407-.631 4.451-1.587 1.262-1.137 1.978-2.824 2.075-4.878.091-1.952-.449-3.537-1.602-4.707"/><path d="M312.671 494.042c-.047 18.686-7.385 27.936-22.017 27.75-7.44-.094-12.95-2.434-16.536-7.02-3.583-4.583-5.364-11.68-5.34-21.287.024-9.652 1.865-16.757 5.522-21.316 3.657-4.56 9.107-6.793 16.347-6.701 14.73.187 22.072 9.712 22.024 28.574m-74.842-.95c-.04 16.262 4.417 28.68 13.372 37.256 8.958 8.575 22.09 12.973 39.399 13.193 17.062.216 30.154-3.87 39.275-12.26 9.123-8.39 13.705-20.716 13.746-36.978.04-16.086-4.453-28.428-13.484-37.026-9.03-8.6-22.175-13.008-39.435-13.227-17.31-.22-30.438 3.823-39.387 12.127-8.95 8.304-13.443 20.609-13.485 36.915" fill="#f0f0f2"/><path stroke-width="2" stroke-miterlimit="10" fill="none" stroke="#272727" d="M312.671 494.042c-.047 18.686-7.385 27.936-22.017 27.75-7.44-.094-12.95-2.434-16.536-7.02-3.583-4.583-5.364-11.68-5.34-21.287.024-9.652 1.865-16.757 5.522-21.316 3.657-4.56 9.107-6.793 16.347-6.701 14.73.187 22.072 9.712 22.024 28.574zm-74.842-.95c-.04 16.262 4.417 28.68 13.372 37.256 8.958 8.575 22.09 12.973 39.399 13.193 17.062.216 30.154-3.87 39.275-12.26 9.123-8.39 13.705-20.716 13.746-36.978.04-16.086-4.453-28.428-13.484-37.026-9.03-8.6-22.175-13.008-39.435-13.227-17.31-.22-30.438 3.823-39.387 12.127-8.95 8.304-13.443 20.609-13.485 36.915z"/><path d="M300.503 501.549c-.047 18.686-7.385 27.936-22.017 27.75-7.44-.094-12.951-2.434-16.536-7.02-3.583-4.583-5.364-11.68-5.34-21.287.024-9.652 1.865-16.757 5.522-21.316 3.657-4.56 9.107-6.793 16.347-6.701 14.73.187 22.072 9.712 22.024 28.574m-74.842-.95c-.041 16.262 4.417 28.68 13.372 37.256 8.957 8.575 22.089 12.973 39.398 13.193 17.062.216 30.154-3.87 39.275-12.26 9.123-8.39 13.705-20.716 13.746-36.978.04-16.086-4.453-28.427-13.484-37.026-9.03-8.6-22.175-13.008-39.435-13.227-17.31-.22-30.438 3.823-39.387 12.127-8.948 8.304-13.443 20.609-13.485 36.915" fill="#f0f0f2"/><path stroke-width="2" stroke-miterlimit="10" fill="none" stroke="#272727" d="M300.503 501.549c-.047 18.686-7.385 27.936-22.017 27.75-7.44-.094-12.951-2.434-16.536-7.02-3.583-4.583-5.364-11.68-5.34-21.287.024-9.652 1.865-16.757 5.522-21.316 3.657-4.56 9.107-6.793 16.347-6.701 14.73.187 22.072 9.712 22.024 28.574zm-74.842-.95c-.041 16.262 4.417 28.68 13.372 37.256 8.957 8.575 22.089 12.973 39.398 13.193 17.062.216 30.154-3.87 39.275-12.26 9.123-8.39 13.705-20.716 13.746-36.978.04-16.086-4.453-28.427-13.484-37.026-9.03-8.6-22.175-13.008-39.435-13.227-17.31-.22-30.438 3.823-39.387 12.127-8.948 8.304-13.443 20.609-13.485 36.915z"/><path d="M261.251 392.893l-73.683 42.444v12.298l130.243 12.524 73.556-42.164v-12.852z" fill="#f0f0f2"/><path stroke-width="2" stroke-miterlimit="10" fill="none" stroke="#272727" d="M261.251 392.893l-73.683 42.444v12.298l130.243 12.524 73.556-42.164v-12.852l-130.116-12.25z"/><path stroke-width="2" stroke-miterlimit="10" fill="none" stroke="#272727" d="M187.448 435.578l130.233 12.867 73.566-43.062M317.692 460.399l-.01-11.954"/><path d="M324.774 375.65l-3.891-14.641c-.906-3.257-2.007-7.464-3.303-12.622-1.296-5.158-2.15-8.847-2.56-11.067-.378 1.988-1.124 5.25-2.235 9.787-1.112 4.536-3.574 13.449-7.386 26.737zm9.509 36.463l-4.447-16.716-29.592-2.758-4.65 15.867-27.037-2.52 30.608-83.477 32.216 2.19 29.815 89.922z" fill="#f0f0f2"/><path d="M306.692 372.96l16.746 1.56-3.522-13.254c-.898-3.228-2.012-7.484-3.306-12.636a363.762 363.762 0 01-1.595-6.557 393.896 393.896 0 01-1.26 5.27c-1.07 4.375-3.447 12.99-7.063 25.617m19.416 3.819l-22.004-2.051.333-1.16c3.796-13.236 6.277-22.22 7.375-26.7 1.106-4.51 1.854-7.785 2.226-9.735l1-5.24.966 5.246c.402 2.185 1.26 5.887 2.545 11.004 1.291 5.136 2.4 9.375 3.297 12.598zm8.961 34.402l24.696 2.302-29.194-88.046-31.406-2.928-29.238 82.6 24.94 2.325 4.648-15.868 31.108 2.9zm27.558 4.578l-29.132-2.716-4.447-16.715-28.078-2.617-4.648 15.867-29.137-2.716 30.27-84.233 35.02 2.03z" fill="#272727"/><path d="M307.902 383.474l-3.891-14.641c-.906-3.258-2.007-7.465-3.303-12.623-1.296-5.158-2.15-8.847-2.56-11.067-.378 1.988-1.124 5.25-2.235 9.787-1.112 4.536-3.574 13.45-7.386 26.737zm9.509 36.462l-4.447-16.715-29.592-2.758-4.65 15.867-27.038-2.52 29.277-82.707 33.482 1.223 29.88 90.119z" fill="#f0f0f2"/><path stroke-width="2" stroke-miterlimit="10" fill="none" stroke="#272727" d="M307.902 383.474l-3.891-14.641c-.906-3.258-2.007-7.465-3.303-12.623-1.296-5.158-2.15-8.847-2.56-11.067-.378 1.988-1.124 5.25-2.235 9.787-1.112 4.536-3.574 13.45-7.386 26.737l19.375 1.806zm9.509 36.462l-4.447-16.715-29.592-2.758-4.65 15.867-27.038-2.52 29.277-82.707 33.482 1.223 29.88 90.119-26.912-2.51z"/><path d="M291.03 391.297l-3.892-14.64c-.906-3.258-2.007-7.465-3.303-12.623-1.296-5.158-2.15-8.847-2.56-11.067-.378 1.988-1.124 5.25-2.235 9.787-1.112 4.536-3.574 13.45-7.386 26.737zm9.508 36.463l-4.447-16.716-29.592-2.758-4.649 15.867-27.039-2.52 29.99-82.525 32.77 1.041 29.88 90.12z" fill="#f0f0f2"/><path stroke-width="2" stroke-miterlimit="10" fill="none" stroke="#272727" d="M291.03 391.297l-3.892-14.64c-.906-3.258-2.007-7.465-3.303-12.623-1.296-5.158-2.15-8.847-2.56-11.067-.378 1.988-1.124 5.25-2.235 9.787-1.112 4.536-3.574 13.45-7.386 26.737l19.375 1.806zm9.508 36.463l-4.447-16.716-29.592-2.758-4.649 15.867-27.039-2.52 29.99-82.525 32.77 1.041 29.88 90.12-26.913-2.509z"/><path d="M274.157 399.121l-3.89-14.641c-.907-3.257-2.008-7.464-3.304-12.622-1.296-5.158-2.15-8.847-2.56-11.067-.378 1.988-1.124 5.25-2.235 9.787-1.112 4.536-3.574 13.449-7.386 26.737zm9.51 36.463l-4.448-16.716-29.592-2.758-4.649 15.867-27.039-2.52 29.951-84.542 32.808 3.058 29.881 90.119z" fill="#f0f0f2"/><path stroke-width="2" stroke-miterlimit="10" fill="none" stroke="#272727" d="M274.157 399.121l-3.89-14.641c-.907-3.257-2.008-7.464-3.304-12.622-1.296-5.158-2.15-8.847-2.56-11.067-.378 1.988-1.124 5.25-2.235 9.787-1.112 4.536-3.574 13.449-7.386 26.737l19.375 1.806zm9.51 36.463l-4.448-16.716-29.592-2.758-4.649 15.867-27.039-2.52 29.951-84.542 32.808 3.058 29.881 90.119-26.913-2.508z"/><path d="M299.357 321.835l-52.762 23.908 33.183 3.238 52.697-24.322z" fill="#f0f0f2"/><path d="M299.357 321.835l-52.163 22.001-.688 1.981 33.498 3.164 52.471-24.322zm.318 2.034l27.08 1.755-47.099 21.315-28.81-2.718z" fill="#272727"/><path d="M141.148 414.827c.736 2.757 1.585 6.549 2.551 11.374.965 4.826 1.61 8.847 1.93 12.064.275-4.458 1.838-12.362 4.687-23.714l13.718-51.08h30.607L161.76 464.253h-32.054L96.685 363.47h30.47z" fill="#f0f0f2"/><path stroke-width="2" stroke-miterlimit="10" fill="none" stroke="#272727" d="M141.148 414.827c.736 2.757 1.585 6.549 2.551 11.374.965 4.826 1.61 8.847 1.93 12.064.275-4.458 1.838-12.362 4.687-23.714l13.718-51.08h30.607L161.76 464.253h-32.054L96.685 363.47h30.47l13.993 51.356z"/><path d="M157.947 424.135c.736 2.757 1.585 6.55 2.55 11.374.966 4.826 1.61 8.847 1.93 12.064.276-4.458 1.839-12.362 4.688-23.714l13.718-51.08h30.607l-32.882 100.782h-32.054l-33.02-100.782h30.469z" fill="#f0f0f2"/><path stroke-width="2" stroke-miterlimit="10" fill="none" stroke="#272727" d="M157.947 424.135c.736 2.757 1.585 6.55 2.55 11.374.966 4.826 1.61 8.847 1.93 12.064.276-4.458 1.839-12.362 4.688-23.714l13.718-51.08h30.607l-32.882 100.782h-32.054l-33.02-100.782h30.469l13.994 51.356z"/><path d="M145.927 473.583l-16.133-9.122-32.753-99.968 16.753 8.974.176.569 32.523 99.547z" fill="#f0f0f2"/><path d="M95.314 362.433l33.65 102.707 16.7 9.443h2.208L114.925 373.74l-.298-.96zm3.454 4.12l14.192 7.602.064.205 31.847 97.478-14.248-8.057z" fill="#272727"/><path d="M262.187 240.976l-73.683 42.444v12.298l130.243 12.524 73.556-42.164v-12.851z" fill="#f0f0f2"/><path stroke-width="2" stroke-miterlimit="10" fill="none" stroke="#272727" d="M262.187 240.976l-73.683 42.444v12.298l130.243 12.524 73.556-42.164v-12.851l-130.116-12.25z"/><path stroke-width="2" stroke-miterlimit="10" fill="none" stroke="#272727" d="M188.384 283.66l130.233 12.868 73.566-43.062M318.627 308.482l-.01-11.954"/><path d="M402.926 301.438l-52.556 30.544v11.309l95.786 10.594 55.783-31.451v-11.728z" fill="#f0f0f2"/><path stroke-width="2" stroke-miterlimit="10" fill="none" stroke="#272727" d="M402.926 301.438l-52.556 30.544v11.309l95.786 10.594 55.783-31.451v-11.728l-99.013-9.268z"/><path stroke-width="2" stroke-miterlimit="10" fill="none" stroke="#272727" d="M349.865 332.003l96.112 11.04 55.962-32.094M446.017 343.048v10.51"/><path d="M432.173 242.474c-6.722-.014-11.78 2.382-15.175 7.186-3.394 4.805-5.102 12.249-5.123 22.333-.02 10.038 1.634 17.432 4.962 22.18 3.33 4.75 8.446 7.132 15.352 7.146 13.584.028 20.395-9.72 20.436-29.242.04-19.707-6.777-29.575-20.452-29.603m-36.517-9.262c8.306-8.777 20.494-13.15 36.563-13.116 16.024.033 28.23 4.49 36.613 13.372 8.386 8.88 12.56 21.724 12.525 38.53-.035 16.99-4.286 29.92-12.754 38.79-8.467 8.869-20.62 13.287-36.46 13.254-16.07-.033-28.262-4.478-36.579-13.336-8.315-8.858-12.456-21.782-12.42-38.773.035-17.036 4.205-29.943 12.512-38.721" fill="#f0f0f2"/><path stroke-width="2" stroke-miterlimit="10" fill="none" stroke="#272727" d="M432.173 242.474c-6.722-.014-11.78 2.382-15.175 7.186-3.394 4.805-5.102 12.249-5.123 22.333-.02 10.038 1.634 17.432 4.962 22.18 3.33 4.75 8.446 7.132 15.352 7.146 13.584.028 20.395-9.72 20.436-29.242.04-19.707-6.777-29.575-20.452-29.603zm-36.517-9.262c8.306-8.777 20.494-13.15 36.563-13.116 16.024.033 28.23 4.49 36.613 13.372 8.386 8.88 12.56 21.724 12.525 38.53-.035 16.99-4.286 29.92-12.754 38.79-8.467 8.869-20.62 13.287-36.46 13.254-16.07-.033-28.262-4.478-36.579-13.336-8.315-8.858-12.456-21.782-12.42-38.773.035-17.036 4.205-29.943 12.512-38.721z"/><path d="M420.307 249.959c-6.746-.014-11.824 2.391-15.23 7.212-3.407 4.823-5.12 12.294-5.142 22.415-.02 10.075 1.64 17.495 4.98 22.262 3.341 4.767 8.476 7.157 15.408 7.172 13.634.028 20.47-9.755 20.51-29.35.041-19.779-6.8-29.683-20.526-29.711m-36.65-9.295c8.336-8.81 20.57-13.198 36.696-13.165 16.083.034 28.332 4.507 36.747 13.421 8.416 8.914 12.606 21.804 12.571 38.671-.036 17.053-4.302 30.031-12.8 38.932-8.499 8.901-20.697 13.336-36.595 13.303-16.128-.034-28.365-4.496-36.712-13.386-8.345-8.89-12.5-21.861-12.466-38.914.035-17.098 4.221-30.052 12.558-38.862" fill="#f0f0f2"/><path stroke-width="2" stroke-miterlimit="10" fill="none" stroke="#272727" d="M420.307 249.959c-6.746-.014-11.824 2.391-15.23 7.212-3.407 4.823-5.12 12.294-5.142 22.415-.02 10.075 1.64 17.495 4.98 22.262 3.341 4.767 8.476 7.157 15.408 7.172 13.634.028 20.47-9.755 20.51-29.35.041-19.779-6.8-29.683-20.526-29.711zm-36.65-9.295c8.336-8.81 20.57-13.198 36.696-13.165 16.083.034 28.332 4.507 36.747 13.421 8.416 8.914 12.606 21.804 12.571 38.671-.036 17.053-4.302 30.031-12.8 38.932-8.499 8.901-20.697 13.336-36.595 13.303-16.128-.034-28.365-4.496-36.712-13.386-8.345-8.89-12.5-21.861-12.466-38.914.035-17.098 4.221-30.052 12.558-38.862z"/><path d="M363.922 258.493l-37.108-4.017-39.347-67.915-.645-.07c1.079 10.129 1.665 17.836 1.755 23.119l.7 40.803-23.766-2.524-1.221-90.051 35.326 3.34 39.189 67.033.43.046c-.825-9.194-1.285-16.557-1.38-22.09l-.702-40.925 25.216 2.729z" fill="#f0f0f2"/><path stroke-width="2" stroke-miterlimit="10" fill="none" stroke="#272727" d="M363.922 258.493l-37.108-4.017-39.347-67.915-.645-.07c1.079 10.129 1.665 17.836 1.755 23.119l.7 40.803-23.766-2.524-1.221-90.051 35.326 3.34 39.189 67.033.43.046c-.825-9.194-1.285-16.557-1.38-22.09l-.702-40.925 25.216 2.729 1.553 90.522z"/><path d="M345.881 269.693l-35.356-3.454-39.845-70.07-.645-.07c1.08 10.128 1.665 17.835 1.755 23.118l.7 40.803-23.766-2.524-1.22-90.05 35.325 3.339 39.19 67.033.43.046c-.826-9.194-1.286-16.557-1.38-22.088l-.703-40.927 25.216 2.729z" fill="#f0f0f2"/><path d="M311.138 265.294l33.74 3.296-.293-90.113-23.199-2.512.683 39.794c.093 5.48.556 12.889 1.376 22.016l.11 1.216-2.146-.234-39.184-67.024-33.707-3.187 1.194 88.05 21.76 2.31-.682-39.672c-.09-5.23-.678-12.977-1.749-23.03l-.132-1.232 2.387.257zm33.918 5.369l-35.145-3.48-.255-.45-38.269-67.3c.852 8.456 1.323 15.095 1.403 19.767l.72 41.934-25.774-2.736-1.247-92.053 36.945 3.493 37.705 64.493c-.629-7.532-.988-13.756-1.07-18.538l-.722-42.06 27.232 2.948z" fill="#272727"/><path d="M330.349 277.707l-37.108-4.017-39.347-67.915-.645-.069c1.079 10.128 1.665 17.834 1.755 23.118l.7 40.803-23.766-2.524-1.221-90.05 35.326 3.34 39.189 67.032.43.046c-.825-9.194-1.285-16.557-1.38-22.089l-.702-40.926 25.216 2.73z" fill="#f0f0f2"/><path stroke-width="2" stroke-miterlimit="10" fill="none" stroke="#272727" d="M330.349 277.707l-37.108-4.017-39.347-67.915-.645-.069c1.079 10.128 1.665 17.834 1.755 23.118l.7 40.803-23.766-2.524-1.221-90.05 35.326 3.34 39.189 67.032.43.046c-.825-9.194-1.285-16.557-1.38-22.089l-.702-40.926 25.216 2.73 1.553 90.521z"/><path d="M313.563 287.315l-37.108-4.017-39.347-67.915-.646-.07c1.08 10.129 1.665 17.836 1.755 23.119l.7 40.803-23.766-2.524-1.22-90.05L249.255 190l39.19 67.033.43.046c-.826-9.194-1.286-16.557-1.38-22.09l-.703-40.925 25.216 2.729z" fill="#f0f0f2"/><path stroke-width="2" stroke-miterlimit="10" fill="none" stroke="#272727" d="M313.563 287.315l-37.108-4.017-39.347-67.915-.646-.07c1.08 10.129 1.665 17.836 1.755 23.119l.7 40.803-23.766-2.524-1.22-90.05L249.255 190l39.19 67.033.43.046c-.826-9.194-1.286-16.557-1.38-22.09l-.703-40.925 25.216 2.729 1.553 90.522z"/><path d="M363.556 259.601l-18.175 9.303-11.893-50.405-1.739.73c.535 9.747 1.244 16.967 1.622 22.592l.743 33.943-19.572 10.371-1.523-88.765 21.035-11.943 13.97 34.054 2.87 7.85.697-.224c-.117-8.42-.13-6.899-.315-13.17l-1.315-39.118 11.86-6.179z" fill="#f0f0f2"/><path d="M313.02 197.37l1.522 88.765 18.657-10.471-.827-33.821c-.13-1.917-.593-23.472-.593-23.472l2.497-1.196 12.097 50.568 16.504-8.448-1.529-89.022-9.37 4.683.297 38.947c.052 1.749.091 2.89.121 3.81.08 2.397.11 3.295.195 9.38l.01.74-2.316.745-3.2-8.754-13.03-34.396zm1.545 91.059L311 196.217l24.098-13.681 13.862 36.59 1.578 4.316c-.048-2.925-.08-3.874-.14-5.662-.03-.922-.069-2.065-.12-3.813l-.34-40.203 13.348-6.756 1.695 93.457-19.924 10.198-11.228-45.967c.107 7.296.621 20.78.646 22.003.027 1.325.05 2.65.095 3.975l.233 10.39.22 9.776.123 5.554.007.309z" fill="#272727"/><path d="M148.61 302.015l-55.369 32.15-.164 11.494 70.357 7.649 56.49-33.245.162-11.224z" fill="#f0f0f2"/><path stroke-width="2" stroke-miterlimit="10" fill="none" stroke="#272727" d="M148.61 302.015l-55.369 32.15-.164 11.494 70.357 7.649 56.49-33.245.162-11.224-71.477-6.824z"/><path stroke-width="2" stroke-miterlimit="10" fill="none" stroke="#272727" d="M93.24 334.307l70.159 8.058 55.962-32.093M163.399 342.175l.036 11.132"/><path d="M155.85 183.326v125.252l35.317 3.441V187.19z" fill="#f0f0f2"/><path stroke-width="2" stroke-miterlimit="10" fill="none" stroke="#272727" d="M155.85 183.326v125.252l35.317 3.441V187.19l-35.316-3.863z"/><path d="M138.924 193.142v125.252l35.316 3.441v-124.83z" fill="#f0f0f2"/><path stroke-width="2" stroke-miterlimit="10" fill="none" stroke="#272727" d="M138.924 193.142v125.252l35.316 3.441v-124.83l-35.316-3.863z"/><path d="M121.997 202.958V328.21l35.316 3.441v-124.83z" fill="#f0f0f2"/><path stroke-width="2" stroke-miterlimit="10" fill="none" stroke="#272727" d="M121.997 202.958V328.21l35.316 3.441v-124.83l-35.316-3.863z"/><g opacity=".4"><clipPath id="b"><path transform="matrix(1 0 0 -1 0 841.89)" d="M83.932 70.956h347.614v24.2H83.932z"/></clipPath><g clip-path="url(#b)"><symbol id="c"><path d="M.083 0v.265h.185C.4.265.477.357.477.466c0 .109-.075.201-.209.201H0V0h.083m.175.339H.083v.254h.175C.337.593.391.541.391.466.391.391.337.339.258.339z"/></symbol><symbol id="d"><path d="M.484 0l-.18.272a.184.184 0 01.173.194C.477.589.39.667.268.667H0V0h.083v.265h.133L.386 0h.098M.258.338H.083v.255h.175C.337.593.391.541.391.466.391.391.337.338.258.338z"/></symbol><symbol id="e"><path d="M.331 0c.197 0 .331.148.331.345C.662.542.528.69.331.69.133.69 0 .542 0 .345 0 .148.133 0 .331 0m0 .074C.181.074.086.19.086.345c0 .156.095.271.245.271C.48.616.576.501.576.345.576.19.48.074.331.074z"/></symbol><symbol id="f"><path d="M.272 0c.181 0 .272.106.272.272v.407H.461V.273C.461.151.395.074.272.074S.083.151.083.273v.406H0V.271C0 .107.091 0 .272 0z"/></symbol><symbol id="g"><path d="M.228 0C.435 0 .57.143.57.333.57.522.435.667.228.667H0V0h.228m0 .074H.083v.519h.145c.165 0 .256-.116.256-.26C.484.19.39.074.228.074z"/></symbol><symbol id="h"><path d="M.393 0v.074h-.31v.593H0V0h.393z"/></symbol><symbol id="i"><path d="M.346 0v.282l.262.385H.511L.304.357l-.207.31H0L.263.282V0h.083z"/></symbol><symbol id="k"><path d="M.64 0L.371.667H.268L0 0h.095l.059.148h.332L.545 0H.64M.461.222H.178L.32.581.461.222z"/></symbol><symbol id="l"><path d="M.664 0l.19.667H.762L.615.111.462.667H.393L.24.111.092.667H0L.19 0h.09l.147.538L.574 0h.09z"/></symbol><symbol id="m"><path d="M.437 0v.074H.083v.23H.43v.074H.083v.215h.354v.074H0V0h.437z"/></symbol><symbol id="n"><path d="M.304 0c.122 0 .193.073.193.18 0 .08-.059.153-.13.164a.152.152 0 01.117.153c0 .1-.071.17-.187.17H0V0h.304M.283.378h-.2v.215h.2C.358.593.398.545.398.485.398.424.358.378.283.378M.287.074H.083v.23h.204C.369.304.411.25.411.189.411.118.365.074.287.074z"/></symbol><symbol id="o"><path d="M.294 0v.593h.212v.074H0V.593h.211V0h.083z"/></symbol><symbol id="p"><path d="M.556 0v.667H.473V.38h-.39v.287H0V0h.083v.306h.39V0h.083z"/></symbol><symbol id="q"><path d="M.343 0c.118 0 .198.056.254.132L.526.171A.222.222 0 00.343.074C.197.074.086.187.086.345c0 .159.111.271.257.271A.225.225 0 00.526.519l.07.039A.298.298 0 01.343.69.334.334 0 010 .345C0 .14.151 0 .343 0z"/></symbol><symbol id="r"><path d="M.256 0c.18 0 .246.099.246.196 0 .249-.395.163-.395.313 0 .063.057.106.137.106a.255.255 0 00.193-.08l.05.061A.314.314 0 01.25.689C.119.689.021.614.021.504c0-.238.395-.143.395-.315C.416.138.378.074.259.074a.282.282 0 00-.21.095L0 .106A.33.33 0 01.256 0z"/></symbol><symbol id="s"><path d="M.083 0v.667H0V0h.083z"/></symbol><symbol id="t"><path d="M.343 0c.109 0 .2.046.262.115v.241H.293V.282h.229V.146A.263.263 0 00.343.074C.197.074.086.188.086.346c0 .159.111.271.257.271.08 0 .151-.038.193-.092l.066.041a.318.318 0 01-.259.125A.334.334 0 010 .346C0 .139.153 0 .343 0z"/></symbol><symbol id="u"><path d="M.552 0v.667H.469V.146L.085.667H0V0h.083v.532L.472 0h.08z"/></symbol><symbol id="v"><path d="M.653 0v.667H.534L.326.165.119.667H0V0h.083v.549L.309 0h.034L.57.549V0h.083z"/></symbol><use xlink:href="#c" transform="matrix(9 0 0 -9 84.633 754.235)"/><use xlink:href="#d" transform="matrix(9 0 0 -9 90.816 754.235)"/><use xlink:href="#e" transform="matrix(9 0 0 -9 96.945 754.343)"/><use xlink:href="#f" transform="matrix(9 0 0 -9 104.973 754.343)"/><use xlink:href="#g" transform="matrix(9 0 0 -9 112.173 754.235)"/><use xlink:href="#h" transform="matrix(9 0 0 -9 119.373 754.235)"/><use xlink:href="#i" transform="matrix(9 0 0 -9 123.135 754.235)"/><use xlink:href="#j" transform="matrix(9 0 0 -9 129.588 754.235)"/><use xlink:href="#k" transform="matrix(9 0 0 -9 132.891 754.235)"/><use xlink:href="#l" transform="matrix(9 0 0 -9 139.335 754.235)"/><use xlink:href="#k" transform="matrix(9 0 0 -9 147.713 754.235)"/><use xlink:href="#d" transform="matrix(9 0 0 -9 155.156 754.235)"/><use xlink:href="#g" transform="matrix(9 0 0 -9 161.528 754.235)"/><use xlink:href="#m" transform="matrix(9 0 0 -9 168.728 754.235)"/><use xlink:href="#g" transform="matrix(9 0 0 -9 174.75 754.235)"/><use xlink:href="#j" transform="matrix(9 0 0 -9 181.247 754.235)"/><use xlink:href="#n" transform="matrix(9 0 0 -9 185.171 754.235)"/><use xlink:href="#i" transform="matrix(9 0 0 -9 190.841 754.235)"/><use xlink:href="#j" transform="matrix(9 0 0 -9 197.294 754.235)"/><use xlink:href="#o" transform="matrix(9 0 0 -9 200.804 754.235)"/><use xlink:href="#p" transform="matrix(9 0 0 -9 207.248 754.235)"/><use xlink:href="#m" transform="matrix(9 0 0 -9 214.556 754.235)"/><use xlink:href="#j" transform="matrix(9 0 0 -9 219.875 754.235)"/><use xlink:href="#q" transform="matrix(9 0 0 -9 223.556 754.343)"/><use xlink:href="#r" transform="matrix(9 0 0 -9 230.423 754.343)"/><use xlink:href="#r" transform="matrix(9 0 0 -9 236.597 754.343)"/><use xlink:href="#j" transform="matrix(9 0 0 -9 242.43 754.235)"/><use xlink:href="#g" transform="matrix(9 0 0 -9 246.353 754.235)"/><use xlink:href="#m" transform="matrix(9 0 0 -9 253.553 754.235)"/><use xlink:href="#r" transform="matrix(9 0 0 -9 259.214 754.343)"/><use xlink:href="#s" transform="matrix(9 0 0 -9 265.748 754.235)"/><use xlink:href="#t" transform="matrix(9 0 0 -9 268.556 754.352)"/><use xlink:href="#u" transform="matrix(9 0 0 -9 276.116 754.235)"/><use xlink:href="#j" transform="matrix(9 0 0 -9 282.686 754.235)"/><use xlink:href="#k" transform="matrix(9 0 0 -9 285.99 754.235)"/><use xlink:href="#l" transform="matrix(9 0 0 -9 292.432 754.235)"/><use xlink:href="#k" transform="matrix(9 0 0 -9 300.811 754.235)"/><use xlink:href="#d" transform="matrix(9 0 0 -9 308.254 754.235)"/><use xlink:href="#g" transform="matrix(9 0 0 -9 314.626 754.235)"/><use xlink:href="#r" transform="matrix(9 0 0 -9 321.466 754.343)"/><use xlink:href="#j" transform="matrix(9 0 0 -9 327.298 754.235)"/><use xlink:href="#q" transform="matrix(9 0 0 -9 330.98 754.343)"/><use xlink:href="#e" transform="matrix(9 0 0 -9 337.963 754.343)"/><use xlink:href="#v" transform="matrix(9 0 0 -9 345.991 754.235)"/><use xlink:href="#v" transform="matrix(9 0 0 -9 354.172 754.235)"/><use xlink:href="#f" transform="matrix(9 0 0 -9 362.353 754.343)"/><use xlink:href="#u" transform="matrix(9 0 0 -9 369.553 754.235)"/><use xlink:href="#s" transform="matrix(9 0 0 -9 376.825 754.235)"/><use xlink:href="#o" transform="matrix(9 0 0 -9 379.462 754.235)"/><use xlink:href="#i" transform="matrix(9 0 0 -9 385.285 754.235)"/></g></g><g opacity=".4"><clipPath id="w"><path transform="matrix(1 0 0 -1 0 841.89)" d="M444.885 114.908h48.495V151.8h-48.495z"/></clipPath><g clip-path="url(#w)" fill="#231f20"><path d="M476.226 701.871l-5.67-5.593-5.561 5.593h-3.182l11.817-11.78h-12.4l-11.861 11.78h-4.484v.822h48.495v-.822zM444.885 715.297h17.03l5.54 5.532 5.638-5.532h3.027l-11.74 11.684 12.4.002 6.173-6.111 5.618-5.575h4.81v-.822h-48.496zM454.275 707c.233 0 .45.033.654.098.203.065.406.145.609.24l.454-1.168a3.906 3.906 0 00-1.702-.387c-.544 0-1.017.115-1.42.347-.401.232-.71.563-.923.994-.214.431-.321.931-.321 1.499 0 .91.22 1.605.663 2.086.442.481 1.078.722 1.907.722.579 0 1.097-.102 1.556-.305v-1.255a7 7 0 01-.688.244 2.455 2.455 0 01-.706.102c-.805 0-1.207-.529-1.207-1.586 0-.509.099-.908.297-1.197a.948.948 0 01.827-.434M460.855 710.224a3.31 3.31 0 01-.842-.122 4.425 4.425 0 01-.883-.34v1.323c.268.127.526.217.774.268.248.052.555.077.92.077.439 0 .82-.073 1.147-.22.326-.146.575-.35.748-.616.173-.264.259-.566.259-.907 0-.37-.092-.679-.276-.923-.184-.244-.513-.473-.986-.686-.494-.225-.797-.38-.908-.466-.111-.085-.167-.18-.167-.289 0-.1.044-.184.13-.252.089-.067.229-.1.422-.1.373 0 .817.117 1.33.352l.455-1.146c-.591-.263-1.171-.395-1.74-.395-.644 0-1.15.142-1.518.425-.368.283-.552.678-.552 1.184 0 .27.043.505.129.702.087.198.22.374.399.527.179.152.448.31.806.473a8.6 8.6 0 01.73.353.735.735 0 01.2.171.329.329 0 01.062.198.35.35 0 01-.154.294c-.103.077-.265.115-.485.115M467.86 710.224a3.31 3.31 0 01-.843-.122 4.425 4.425 0 01-.883-.34v1.323c.268.127.526.217.774.268.248.052.555.077.921.077.438 0 .82-.073 1.146-.22.326-.146.575-.35.748-.616.173-.264.26-.566.26-.907 0-.37-.093-.679-.277-.923-.184-.244-.513-.473-.986-.686-.494-.225-.797-.38-.908-.466-.11-.085-.167-.18-.167-.289 0-.1.044-.184.131-.252.088-.067.228-.1.421-.1.373 0 .817.117 1.331.352l.454-1.146c-.59-.263-1.17-.395-1.74-.395-.644 0-1.15.142-1.518.425-.368.283-.552.678-.552 1.184 0 .27.043.505.13.702.086.198.22.374.398.527.18.152.448.31.806.473a8.6 8.6 0 01.731.353.735.735 0 01.2.171.329.329 0 01.061.198.35.35 0 01-.154.294c-.103.077-.265.115-.485.115M476.202 709.745c-.211.262-.541.393-.992.393h-.331v-3.078h.432c.406 0 .709.122.908.364.199.244.298.617.298 1.12 0 .54-.105.94-.315 1.201m1.856-1.253c0-.852-.24-1.503-.72-1.954-.48-.45-1.16-.677-2.042-.677h-1.901v5.494h1.777c.915 0 1.624-.248 2.129-.744.505-.496.757-1.202.757-2.119M483.67 707.376c.066-.293.111-.504.133-.631.025.137.077.365.156.684.08.318.146.577.201.777l.237.902h-1.169c.228-.861.376-1.44.442-1.732m1.035 2.95l.271 1.03h1.623l-1.815-5.517h-1.98l-1.793 5.517h1.631l.278-1.03z"/></g></g><g opacity=".5"><clipPath id="x"><path transform="matrix(1 0 0 -1 0 841.89)" d="M421.1 85.267h96.128v96.147H421.1z"/></clipPath><g clip-path="url(#x)"><use xlink:href="#e" transform="scale(9 -9) rotate(27.035 180.608 66.12)" fill="#231f20"/><symbol id="y"><path d="M.083 0v.304H.43v.074H.083v.215h.354v.074H0V0h.083z"/></symbol><use xlink:href="#y" transform="scale(9 -9) rotate(17.276 270.424 129.29)" fill="#231f20"/><use xlink:href="#y" transform="scale(9 -9) rotate(8.867 504.751 293.216)" fill="#231f20"/><use xlink:href="#s" transform="scale(9 -9) rotate(2.403 1795.623 1200.162)" fill="#231f20"/><use xlink:href="#q" transform="scale(9 -9) rotate(-4.714 -875.522 -671.42)" fill="#231f20"/><use xlink:href="#s" transform="scale(9 -9) rotate(-11.968 -327.92 -290.08)" fill="#231f20"/><use xlink:href="#k" transform="scale(9 -9) rotate(-19.138 -193.893 -195.273)" fill="#231f20"/><use xlink:href="#h" transform="scale(9 -9) rotate(-27.992 -122.722 -145.82)" fill="#231f20"/><use xlink:href="#j" transform="scale(9 -9) rotate(-34.3 -94.118 -125.86)" fill="#231f20"/><use xlink:href="#j" transform="scale(9 -9) rotate(-39.103 -78.36 -114.822)" fill="#231f20"/><use xlink:href="#q" transform="scale(9 -9) rotate(-46.409 -60.368 -102.075)" fill="#231f20"/><use xlink:href="#r" transform="scale(9 -9) rotate(-55.742 -43.993 -90.66)" fill="#231f20"/><use xlink:href="#r" transform="scale(9 -9) rotate(-64.578 -32.544 -82.66)" fill="#231f20"/><use xlink:href="#g" transform="scale(9 -9) rotate(-74.146 -22.913 -75.933)" fill="#231f20"/><use xlink:href="#k" transform="scale(9 -9) rotate(-83.658 -15.234 -70.557)" fill="#231f20"/><use xlink:href="#j" transform="scale(-9 9) rotate(89.072 -68.293 10.55)" fill="#231f20"/><use xlink:href="#j" transform="scale(-9 9) rotate(84.426 -71.88 8.31)" fill="#231f20"/><use xlink:href="#q" transform="scale(-9 9) rotate(77.046 -78.193 4.197)" fill="#231f20"/><use xlink:href="#m" transform="scale(-9 9) rotate(67.732 -87.974 -1.883)" fill="#231f20"/><use xlink:href="#d" transform="scale(-9 9) rotate(58.845 -99.742 -9.309)" fill="#231f20"/><use xlink:href="#o" transform="scale(-9 9) rotate(50.13 -114.933 -18.899)" fill="#231f20"/><use xlink:href="#s" transform="scale(-9 9) rotate(43.591 -130.12 -28.12)" fill="#231f20"/><use xlink:href="#y" transform="scale(-9 9) rotate(37.134 -149.87 -40.774)" fill="#231f20"/><use xlink:href="#s" transform="scale(-9 9) rotate(30.677 -177.775 -57.98)" fill="#231f20"/><use xlink:href="#q" transform="scale(-9 9) rotate(23.409 -226.778 -89.375)" fill="#231f20"/><use xlink:href="#k" transform="scale(-9 9) rotate(13.58 -375.451 -183.15)" fill="#231f20"/><use xlink:href="#o" transform="scale(-9 9) rotate(5.256 -932.616 -533.5)" fill="#231f20"/><use xlink:href="#m" transform="scale(-9 9) rotate(-3.264 1434.575 955.297)" fill="#231f20"/><use xlink:href="#j" transform="scale(-9 9) rotate(-9.947 452.231 337.301)" fill="#231f20"/><use xlink:href="#j" transform="scale(-9 9) rotate(-14.784 294.796 238.484)" fill="#231f20"/><use xlink:href="#e" transform="scale(-9 9) rotate(-22.706 181.354 167.747)" fill="#231f20"/><use xlink:href="#y" transform="scale(-9 9) rotate(-32.448 117.067 127.023)" fill="#231f20"/><use xlink:href="#j" transform="scale(-9 9) rotate(-39.018 91.47 110.856)" fill="#231f20"/><use xlink:href="#j" transform="scale(-9 9) rotate(-43.804 77.52 102.095)" fill="#231f20"/><use xlink:href="#m" transform="scale(-9 9) rotate(-50.469 62.345 92.625)" fill="#231f20"/><symbol id="z"><path d="M.627 0L.368.343l.244.324H.511L.314.4.116.667H.015L.26.342 0 0h.101l.213.284L.527 0h.1z"/></symbol><use xlink:href="#z" transform="scale(-9 9) rotate(-59.538 46.854 82.944)" fill="#231f20"/><use xlink:href="#q" transform="scale(-9 9) rotate(-68.965 34.668 75.269)" fill="#231f20"/><use xlink:href="#m" transform="scale(-9 9) rotate(-78.3 25.164 69.25)" fill="#231f20"/><use xlink:href="#h" transform="scale(-9 9) rotate(-86.555 18.227 64.883)" fill="#231f20"/><use xlink:href="#h" transform="scale(9 -9) rotate(85.694 66.156 -13.612)" fill="#231f20"/><use xlink:href="#m" transform="scale(9 -9) rotate(77.449 72.441 -9.242)" fill="#231f20"/><use xlink:href="#u" transform="scale(9 -9) rotate(67.909 81.31 -3.119)" fill="#231f20"/><use xlink:href="#q" transform="scale(9 -9) rotate(57.767 93.485 5.368)" fill="#231f20"/><use xlink:href="#m" transform="scale(9 -9) rotate(48.543 108.46 15.95)" fill="#231f20"/></g></g><g opacity=".55"><clipPath id="A"><path transform="matrix(1 0 0 -1 0 841.89)" d="M83.934 747.53h108.01v13.265H83.934z"/></clipPath><g clip-path="url(#A)"><symbol id="B"><path d="M.055.39C.085.39.11.415.11.445S.085.5.055.5A.055.055 0 010 .445C0 .415.025.39.055.39m0-.39C.085 0 .11.025.11.055S.085.11.055.11A.055.055 0 010 .055C0 .025.025 0 .055 0z"/></symbol><use xlink:href="#k" transform="matrix(12 0 0 -12 84.042 91.097)"/><use xlink:href="#l" transform="matrix(12 0 0 -12 92.632 91.097)"/><use xlink:href="#k" transform="matrix(12 0 0 -12 103.806 91.097)"/><use xlink:href="#d" transform="matrix(12 0 0 -12 113.73 91.097)"/><use xlink:href="#g" transform="matrix(12 0 0 -12 122.226 91.097)"/><use xlink:href="#m" transform="matrix(12 0 0 -12 131.826 91.097)"/><use xlink:href="#g" transform="matrix(12 0 0 -12 139.854 91.097)"/><use xlink:href="#j" transform="matrix(12 0 0 -12 148.518 91.097)"/><use xlink:href="#o" transform="matrix(12 0 0 -12 153.198 91.097)"/><use xlink:href="#e" transform="matrix(12 0 0 -12 161.14 91.241)"/><use xlink:href="#B" transform="matrix(12 0 0 -12 171.628 91.217)"/><use xlink:href="#j" transform="matrix(12 0 0 -12 174.868 91.097)"/></g></g></g><clipPath id="C"><path transform="matrix(1 0 0 -1 0 841.89)" d="M0 841.89h595.28V0H0z"/></clipPath><g clip-path="url(#C)"><path d="M84.018 110.483l.868-1.527c.364.35.841.673 1.486.673.881 0 1.457-.589 1.457-1.5v-6.247h1.988v6.276c0 2.213-1.372 3.235-3.29 3.235-.94 0-1.836-.252-2.509-.91M96.467 103.872l-1.457 4.02h2.913zm2.577 7.354l-.574-1.583h-4.007l-.588 1.583h-2.269l3.614-9.343h2.493l3.601 9.343zM102.653 106.562c0-2.872 2.17-4.833 4.973-4.833 2.058 0 3.249 1.12 3.908 2.283l-1.71.84c-.392-.756-1.233-1.358-2.198-1.358-1.696 0-2.928 1.302-2.928 3.068 0 1.765 1.232 3.067 2.928 3.067.965 0 1.806-.588 2.199-1.36l1.709.828c-.673 1.162-1.85 2.297-3.908 2.297-2.802 0-4.973-1.961-4.973-4.832M113.489 109.91l1.079-1.514a4.098 4.098 0 002.97 1.261c1.092 0 1.624-.505 1.624-1.037 0-1.652-5.38-.519-5.38-4.034 0-1.555 1.346-2.844 3.545-2.844 1.485 0 2.718.448 3.642 1.303l-1.106 1.457c-.757-.7-1.766-1.023-2.718-1.023-.854 0-1.331.378-1.331.94 0 1.483 5.365.49 5.365 3.977 0 1.708-1.218 2.997-3.74 2.997-1.793 0-3.081-.602-3.95-1.484M131.188 106.562c0-1.751-1.12-3.068-2.844-3.068-1.722 0-2.829 1.317-2.829 3.068 0 1.736 1.107 3.067 2.829 3.067 1.724 0 2.844-1.331 2.844-3.067m-7.718 0c0-2.816 2.059-4.833 4.874-4.833 2.83 0 4.889 2.017 4.889 4.833 0 2.815-2.059 4.832-4.889 4.832-2.815 0-4.874-2.017-4.874-4.832M142.472 111.226l-4.455-6.094v6.094h-1.988v-9.343h2.045l4.328 5.869v-5.87h1.99v9.344zM152.619 111.226v-9.343h1.988v7.592h3.95v1.75zM161.005 107.5v-5.617h2.017v5.547c0 1.302.756 2.199 2.2 2.199 1.442 0 2.184-.897 2.184-2.199v-5.547h2.032v5.602c0 2.326-1.373 3.909-4.217 3.909-2.844 0-4.216-1.597-4.216-3.894M172.667 101.883h1.989v9.343h-1.989zM177.272 109.91l1.079-1.514a4.098 4.098 0 002.97 1.261c1.092 0 1.624-.505 1.624-1.037 0-1.652-5.379-.519-5.379-4.034 0-1.555 1.345-2.844 3.544-2.844 1.485 0 2.718.448 3.642 1.303l-1.106 1.457c-.757-.7-1.766-1.023-2.718-1.023-.854 0-1.331.378-1.331.94 0 1.483 5.365.49 5.365 3.977 0 1.708-1.218 2.997-3.74 2.997-1.793 0-3.081-.602-3.95-1.484M198.233 111.226l-2.83-3.74-.728.869v2.87h-1.99v-9.342h1.99v4.174l3.306-4.174h2.45l-3.711 4.384 3.964 4.959zM208.466 104.895c0-.785-.603-1.261-1.4-1.261h-2.088v2.522h2.088c.797 0 1.4-.477 1.4-1.261m-.196 6.33l-1.835-3.318h-1.457v3.319h-1.989v-9.343h4.371c1.947 0 3.137 1.275 3.137 3.012 0 1.652-1.037 2.535-2.045 2.773l2.101 3.558zM219.316 101.28a.952.952 0 01-.952-.952.95.95 0 01.952-.939.95.95 0 01.952.94.952.952 0 01-.952.951m-2.955 0a.944.944 0 01-.953-.952c0-.519.42-.939.953-.939.517 0 .938.42.938.94a.942.942 0 01-.938.951m4.3 5.281c0-1.75-1.12-3.068-2.844-3.068-1.723 0-2.83 1.317-2.83 3.068 0 1.737 1.107 3.068 2.83 3.068 1.724 0 2.844-1.33 2.844-3.068m-7.718 0c0-2.816 2.059-4.833 4.874-4.833 2.83 0 4.889 2.017 4.889 4.833 0 2.816-2.06 4.832-4.89 4.832-2.814 0-4.873-2.016-4.873-4.832M227.323 111.226v-7.592h-2.731v-1.751h7.45v1.75h-2.716v7.593zM234.376 111.226v-1.611l4.413-5.981h-4.412v-1.751h7.018v1.597l-4.414 5.995h4.512v1.75zM85.65 685.771v-17.343h3.692v14.093h7.332v3.25zM107.465 685.771v-1.586c-.858.962-2.366 1.898-4.42 1.898-2.757 0-4.057-1.508-4.057-3.952v-8.919h3.302v7.62c0 1.742.91 2.314 2.315 2.314 1.274 0 2.288-.702 2.86-1.43v-8.503h3.302v12.559zM114.042 673.213h3.302v12.559h-3.302zm-.338-3.328c0-1.092.91-1.95 1.976-1.95 1.092 0 1.976.858 1.976 1.95a1.974 1.974 0 01-1.976 1.976 1.991 1.991 0 01-1.976-1.976M119.527 684.134l1.431-2.314c.91.858 2.782 1.715 4.341 1.715 1.43 0 2.107-.571 2.107-1.351 0-2.08-7.463-.39-7.463-5.33 0-2.107 1.847-3.952 5.148-3.952 2.132 0 3.823.727 5.071 1.715l-1.326 2.262c-.754-.806-2.184-1.456-3.718-1.456-1.196 0-1.977.547-1.977 1.248 0 1.872 7.437.313 7.437 5.383 0 2.288-1.95 4.03-5.435 4.03-2.183 0-4.29-.728-5.616-1.95M141.16 685.771l-3.328-4.836-1.509 1.612v3.224h-3.302v-17.343h3.302v10.375l4.76-5.59h4.055l-4.966 5.695 5.122 6.864zM146.932 685.771v-12.559h3.302v1.717c.884-1.118 2.444-2.028 4.004-2.028v3.224a4.377 4.377 0 00-.91-.079c-1.092 0-2.548.624-3.094 1.431v8.295z"/><g opacity=".55"><clipPath id="D"><path transform="matrix(1 0 0 -1 0 841.89)" d="M84.57 193.297h79.328v8.264H84.57z"/></clipPath><g clip-path="url(#D)"><path d="M84.582 648.45v-.793c2.878-2.267 4.437-3.598 4.437-4.978 0-1.018-.839-1.462-1.666-1.462-.96 0-1.704.408-2.171 1.007l-.612-.635c.612-.804 1.655-1.26 2.783-1.26 1.331 0 2.686.756 2.686 2.35 0 1.632-1.655 3.12-3.886 4.882h3.922v.888zM97.9 644.455c0-1.595-.517-3.238-2.04-3.238-1.523 0-2.039 1.643-2.039 3.238 0 1.596.516 3.25 2.04 3.25 1.522 0 2.038-1.654 2.038-3.25m-5.097 0c0-1.955.864-4.126 3.058-4.126 2.183 0 3.06 2.171 3.06 4.126 0 1.943-.877 4.138-3.06 4.138-2.194 0-3.058-2.195-3.058-4.138M101.382 648.45v-.793c2.878-2.267 4.437-3.598 4.437-4.978 0-1.018-.84-1.462-1.666-1.462-.96 0-1.704.408-2.171 1.007l-.612-.635c.612-.804 1.655-1.26 2.783-1.26 1.33 0 2.686.756 2.686 2.35 0 1.632-1.655 3.12-3.886 4.882h3.922v.888zM114.7 644.455c0-1.595-.517-3.238-2.04-3.238-1.523 0-2.039 1.643-2.039 3.238 0 1.596.516 3.25 2.04 3.25 1.522 0 2.038-1.654 2.038-3.25m-5.097 0c0-1.955.864-4.126 3.058-4.126 2.183 0 3.06 2.171 3.06 4.126 0 1.943-.877 4.138-3.06 4.138-2.194 0-3.058-2.195-3.058-4.138M121.962 647.669l.516-.755c.348.42.816.791 1.51.791.985 0 1.609-.683 1.609-1.679v-5.577h.995v5.589c0 1.739-1.115 2.555-2.543 2.555-.852 0-1.535-.276-2.087-.924M129.666 645.343v-4.894h.995v4.87c0 1.463.792 2.386 2.267 2.386 1.475 0 2.266-.923 2.266-2.386v-4.87h.996v4.882c0 1.99-1.091 3.262-3.262 3.262-2.171 0-3.262-1.283-3.262-3.25M144.926 648.45l-4.665-6.382v6.381h-.995v-8h1.019l4.606 6.25v-6.25h.995v8zM154.456 648.45v-6.682l-1.283 1.356-.6-.612 2.003-2.063h.876v8zM161.775 641.373l-2.807 4.174h2.807zm0 7.076v-2.027h-3.802v-.827l3.43-5.146h1.367v5.098h1.128v.875h-1.128v2.027z"/></g></g></g></g></svg>