<?xml version="1.0" standalone="no"?>
<!DOCTYPE svg PUBLIC "-//W3C//DTD SVG 20010904//EN"
 "http://www.w3.org/TR/2001/REC-SVG-20010904/DTD/svg10.dtd">
<svg version="1.0" xmlns="http://www.w3.org/2000/svg"
 width="260.000000pt" height="260.000000pt" viewBox="0 0 260.000000 260.000000"
 preserveAspectRatio="xMidYMid meet">
<metadata>
Created by potrace 1.11, written by Peter Selinger 2001-2013
</metadata>
<g transform="translate(0.000000,260.000000) scale(0.100000,-0.100000)"
fill="#000000" stroke="none">
<path d="M1223 2016 c-62 -15 -97 -37 -120 -74 -47 -74 -146 -200 -177 -225
-19 -15 -40 -43 -46 -62 -13 -39 -20 -42 -110 -50 -126 -10 -147 -18 -155 -57
-6 -24 -3 -35 11 -46 16 -11 117 -62 134 -67 41 -11 51 -18 44 -33 -22 -51 4
-240 39 -280 8 -10 17 -33 20 -53 9 -63 49 -199 61 -212 7 -7 20 -34 30 -61
11 -29 26 -51 37 -53 11 -3 19 -9 19 -14 0 -5 10 -30 21 -54 18 -39 24 -44 37
-33 9 8 17 9 19 3 2 -5 13 -26 24 -45 l21 -34 13 24 13 25 19 -33 c27 -47 51
-51 85 -13 28 31 48 34 48 5 0 -25 19 -15 46 26 29 43 39 48 48 25 9 -25 21
-17 46 28 35 63 42 71 51 55 11 -17 23 -4 60 59 16 26 31 47 34 46 16 -8 26 5
58 80 19 45 38 93 42 107 10 34 24 50 39 44 19 -7 47 30 82 109 30 68 38 129
24 177 -4 11 11 16 69 22 75 8 92 18 113 69 14 36 -87 94 -183 104 -29 3 -39
15 -50 61 -6 24 -15 44 -18 44 -12 0 -51 76 -66 128 -21 70 -86 165 -137 200
-88 61 -237 86 -345 58z"/>
</g>
</svg>
