<?xml version="1.0" standalone="no"?>
<!DOCTYPE svg PUBLIC "-//W3C//DTD SVG 20010904//EN"
 "http://www.w3.org/TR/2001/REC-SVG-20010904/DTD/svg10.dtd">
<svg version="1.0" xmlns="http://www.w3.org/2000/svg"
 width="1400.000000pt" height="1400.000000pt" viewBox="0 0 1400.000000 1400.000000"
 preserveAspectRatio="xMidYMid meet">
<metadata>
Created by potrace 1.11, written by Peter Selinger 2001-2013
</metadata>
<g transform="translate(0.000000,1400.000000) scale(0.100000,-0.100000)"
fill="#000000" stroke="none">
<path d="M0 7000 l0 -3240 2025 0 2025 0 0 3240 0 3240 -2025 0 -2025 0 0
-3240z"/>
<path d="M4860 7000 l0 -3240 810 0 c533 0 810 3 811 10 1 19 1 80 -1 88 -1 4
-2 10 -1 14 2 15 3 133 1 143 -1 6 -2 13 -1 17 2 15 3 133 1 143 -1 6 -2 13
-1 17 2 14 3 133 1 143 -2 13 0 92 4 128 2 15 -1 30 -6 33 -4 3 -6 9 -3 14 5
8 9 126 5 145 -1 6 -2 13 -1 17 2 15 3 133 1 143 -1 6 -2 13 -1 17 2 15 3 133
1 143 -1 6 -2 14 -1 20 3 13 2 150 -1 208 -2 26 -1 47 2 47 3 0 4 30 2 67 -4
114 -3 164 4 175 5 7 2 8 -6 3 -9 -6 -11 -4 -5 5 7 12 8 76 3 183 -2 26 -1 47
2 47 3 0 4 30 2 67 -4 114 -3 164 4 175 5 7 2 8 -6 3 -9 -6 -11 -4 -5 5 4 7 7
42 6 79 -1 36 -2 71 -2 76 0 6 0 55 1 110 0 55 0 122 0 148 0 27 3 53 6 59 5
7 2 8 -6 3 -9 -6 -11 -4 -5 5 7 12 8 76 3 183 -2 26 -1 47 2 47 3 0 4 30 2 67
-4 114 -3 164 4 175 5 7 2 8 -6 3 -9 -6 -11 -4 -5 5 7 12 8 76 3 183 -2 26 -1
47 2 47 3 0 5 27 5 60 0 33 -4 60 -8 60 -5 0 -6 4 -2 9 8 14 9 196 1 210 -4 6
-4 11 1 11 7 0 9 143 3 175 -1 6 -2 13 -1 17 2 15 3 133 1 143 -1 6 -2 13 -1
17 2 15 3 133 1 143 -1 6 -2 13 -1 17 2 14 3 133 1 143 -2 13 0 92 4 128 2 15
-1 30 -6 33 -4 3 -6 9 -3 14 5 8 9 126 5 145 -1 6 -2 13 -1 17 2 15 3 133 1
143 -1 6 -2 13 -1 17 2 14 3 133 1 143 -2 13 0 92 4 128 2 15 -1 30 -6 33 -4
3 -6 9 -3 14 5 8 9 126 5 145 -1 6 -2 13 -1 17 2 15 3 133 1 143 -1 6 -2 13
-1 17 2 14 3 133 1 143 -2 13 0 92 4 128 2 15 -1 30 -6 33 -4 3 -6 9 -3 14 5
8 9 126 5 145 -1 6 -2 13 -1 17 2 15 3 133 1 143 -1 6 -2 13 -1 17 4 29 4 138
-1 143 -3 3 -2 22 1 43 3 20 5 52 3 70 l-3 32 -810 0 -809 0 0 -3240z"/>
<path d="M6885 10230 c-2 -4 -4 -39 -4 -78 0 -39 -2 -76 -5 -81 -4 -5 -2 -12
3 -15 6 -4 6 -18 1 -35 -4 -16 -7 -31 -5 -33 5 -4 6 -41 6 -143 -1 -38 -1
-105 0 -148 0 -43 -3 -82 -6 -87 -3 -6 -3 -10 2 -10 8 0 7 -145 -1 -167 -3 -7
-1 -15 4 -18 5 -3 5 -18 0 -34 -4 -16 -7 -31 -5 -33 5 -4 6 -41 6 -143 -1 -38
-1 -105 0 -148 0 -43 -3 -82 -6 -87 -3 -6 -3 -10 2 -10 8 0 7 -145 -1 -167 -3
-7 -1 -15 4 -18 5 -3 5 -18 0 -34 -4 -16 -7 -31 -5 -33 5 -4 6 -41 6 -143 -1
-38 -1 -105 0 -148 0 -43 -3 -82 -6 -87 -3 -6 -3 -10 2 -10 8 0 7 -145 -1
-167 -3 -7 -1 -15 4 -18 5 -3 5 -18 0 -34 -4 -16 -7 -31 -5 -33 5 -4 6 -41 6
-143 -1 -38 -1 -105 0 -148 0 -43 -3 -82 -6 -87 -3 -6 -1 -10 5 -10 6 0 9 -4
6 -9 -5 -8 -8 -121 -5 -234 1 -31 0 -60 -3 -62 -3 -3 -2 -25 2 -50 4 -25 4
-45 -1 -45 -4 0 -4 -15 0 -33 5 -18 5 -41 1 -52 -4 -11 -4 -32 1 -47 4 -14 5
-29 2 -31 -2 -3 -4 -35 -3 -71 1 -36 1 -72 1 -78 0 -7 0 -62 0 -123 -1 -60 -1
-150 -1 -198 0 -48 -2 -92 -5 -97 -3 -5 -1 -11 4 -14 6 -4 6 -18 1 -35 -4 -16
-7 -31 -5 -33 6 -5 6 -57 5 -293 -1 -78 -1 -91 1 -117 1 -12 0 -212 -1 -339
l-1 -56 153 -1 c84 0 158 -1 163 -1 7 -1 11 -36 10 -93 l0 -93 -35 -2 c-19 -2
-93 -4 -165 -5 -108 -3 -129 -5 -127 -18 2 -8 3 -46 2 -85 -1 -83 -1 -73 0
-155 1 -36 1 -69 0 -75 -2 -12 0 -63 4 -89 1 -10 -1 -38 -4 -62 -4 -25 -3 -47
1 -49 4 -3 4 -18 -1 -34 -4 -16 -7 -31 -5 -33 5 -4 6 -41 6 -143 -1 -38 -1
-105 0 -148 0 -43 -3 -82 -6 -87 -3 -6 -3 -10 2 -10 8 0 7 -145 -1 -167 -3 -7
-1 -15 4 -18 4 -3 5 -17 1 -33 -4 -15 -4 -43 -1 -64 4 -20 4 -41 1 -47 -4 -5
-4 -39 -1 -75 3 -37 2 -66 -3 -66 -4 0 -5 -5 -1 -12 4 -6 8 -37 9 -70 1 -32 5
-61 8 -64 3 -3 41 -5 84 -4 43 1 85 1 93 1 8 0 116 0 240 0 124 0 232 0 240 0
8 0 116 0 240 0 124 0 232 0 240 0 95 -1 461 -1 467 0 4 1 13 0 18 -1 6 -1 25
-1 43 0 27 1 33 -2 32 -17 -1 -10 -2 -33 -1 -50 l1 -32 618 -1 618 0 0 185 1
185 -189 0 c-103 0 -188 3 -189 8 0 4 -1 33 -2 65 l-2 57 35 1 c148 3 330 0
338 -5 6 -3 10 -32 9 -64 l-2 -57 111 -3 110 -3 -1 -172 c0 -95 1 -178 3 -184
3 -10 139 -13 633 -13 l628 0 9 33 c5 17 6 41 1 53 -4 11 -3 27 1 34 5 8 4 22
-1 31 -5 10 -5 20 -1 23 5 3 6 26 2 50 -4 25 -4 50 0 56 4 6 5 24 2 40 -4 27
-8 30 -41 30 l-37 0 0 740 0 740 36 0 c34 0 36 2 38 37 2 20 5 40 8 45 3 4 1
8 -5 8 -6 0 -7 11 -3 28 4 15 6 38 5 52 -2 23 -3 91 -2 130 1 14 37 16 302 15
l301 0 7 -25 c4 -14 35 -104 69 -200 34 -96 69 -196 77 -221 l15 -46 67 0 c36
0 73 -1 81 -2 13 -1 15 -57 15 -462 0 -253 2 -464 5 -467 7 -9 200 -9 200 0 0
4 10 4 23 1 12 -2 30 -5 39 -5 16 1 18 -25 18 -350 0 -193 3 -354 6 -357 7 -7
1184 -10 1229 -4 l30 5 -1 516 c-1 284 -2 522 -3 528 -1 7 -31 11 -87 10 -47
-1 -90 2 -96 6 -8 4 -12 98 -12 295 l-1 288 -68 0 c-61 0 -70 3 -87 25 -11 14
-20 33 -20 42 0 9 -4 18 -8 20 -10 3 -152 292 -152 308 0 5 -4 10 -9 10 -5 0
-11 10 -14 23 -3 12 -8 31 -12 43 l-6 20 385 0 386 -1 0 98 0 97 -47 0 c-27 1
-181 0 -344 0 l-296 0 -47 102 c-26 56 -55 119 -64 140 -9 21 -20 38 -24 38
-5 0 -8 7 -8 15 0 8 -9 30 -20 50 -11 19 -20 38 -21 43 -1 4 -19 44 -40 90
-22 46 -39 87 -39 93 0 5 -4 9 -10 9 -5 0 -10 5 -10 12 0 11 -6 25 -107 238
-31 63 -66 140 -80 170 -14 30 -56 117 -92 195 -37 77 -76 161 -87 187 -10 27
-22 48 -26 48 -5 0 -8 6 -8 13 0 6 -18 50 -40 95 l-41 83 143 207 c78 114 161
234 183 267 23 33 62 89 86 125 24 36 46 67 49 70 3 3 23 32 45 65 22 33 43
62 48 63 4 2 7 10 7 17 0 7 3 15 8 17 4 2 25 30 47 63 22 33 45 65 50 72 16
20 29 38 40 55 24 40 195 294 205 305 5 7 10 14 10 17 0 3 29 57 64 120 35 63
67 124 71 137 4 13 14 29 21 37 8 7 14 21 14 30 0 10 6 26 13 37 7 11 19 34
25 50 6 17 17 44 23 60 7 17 13 32 14 35 0 3 13 41 27 85 14 44 30 94 34 110
4 17 8 35 10 40 27 106 44 221 49 343 l4 92 -653 0 -653 0 -6 -92 c-7 -110
-15 -150 -53 -268 0 -3 -5 -20 -9 -38 -4 -18 -12 -35 -16 -38 -5 -3 -9 -12 -9
-20 0 -8 -10 -36 -21 -62 -12 -26 -33 -72 -46 -102 -44 -98 -124 -252 -209
-403 -46 -81 -84 -152 -84 -157 0 -6 -3 -10 -8 -10 -4 0 -13 -15 -21 -32 -8
-18 -17 -35 -21 -38 -3 -3 -14 -21 -23 -40 -10 -19 -31 -57 -48 -85 -16 -27
-37 -63 -45 -80 -8 -16 -24 -46 -36 -65 -22 -37 -101 -179 -151 -270 -17 -30
-38 -66 -47 -80 -10 -14 -25 -41 -34 -60 -9 -19 -32 -62 -51 -95 -20 -33 -41
-71 -48 -85 -6 -14 -14 -27 -17 -30 -3 -3 -16 -25 -29 -50 -13 -25 -37 -70
-54 -100 -17 -30 -40 -73 -51 -95 -12 -22 -23 -42 -26 -45 -3 -3 -16 -27 -30
-54 -14 -26 -30 -47 -35 -45 -6 2 -9 7 -8 10 5 14 23 852 23 1058 0 35 -2 66
-5 69 -2 2 0 13 5 23 6 11 6 20 1 24 -6 3 -6 17 -1 34 4 15 4 34 0 41 -5 7 -5
23 0 35 4 11 4 28 -1 37 -6 11 -5 19 1 23 6 4 8 10 6 14 -5 8 -6 48 -7 199 0
83 0 155 -1 170 0 9 0 33 1 52 1 19 1 42 1 50 0 8 1 29 3 45 1 17 -1 44 -4 61
-4 18 -3 38 1 45 5 7 5 22 0 34 -5 12 -5 27 -1 34 5 7 5 29 2 49 -4 20 -4 53
-1 72 4 19 3 42 -1 51 -4 8 -4 21 1 29 5 8 5 21 -1 31 -5 10 -5 20 -1 23 5 3
6 25 2 50 -4 24 -3 51 1 58 4 8 4 20 0 27 -5 7 -5 30 -1 52 l7 39 -641 0 -641
0 1 -2852 c1 -1569 2 -2859 3 -2865 1 -10 65 -13 286 -13 157 0 286 -3 286 -7
7 -44 3 -196 -6 -202 -5 -4 -131 -7 -280 -7 -251 2 -303 -3 -289 -25 2 -5 -46
-8 -108 -8 l-113 1 1 287 0 286 -949 0 c-522 0 -952 2 -956 5 -3 3 -7 620 -6
1372 l0 1367 100 0 c55 0 111 0 125 0 l25 1 0 1327 -1 1328 -638 0 c-350 0
-639 -2 -641 -5z m4955 -3527 c8 -27 15 -52 16 -58 1 -5 6 -21 12 -35 5 -14
11 -29 12 -35 1 -5 13 -40 26 -76 13 -36 25 -74 27 -85 2 -10 9 -29 15 -41 7
-13 10 -23 7 -23 -2 0 2 -17 9 -37 8 -21 27 -77 42 -125 l27 -87 585 0 c321 0
587 -3 591 -6 7 -7 8 -185 1 -186 -21 -4 -1274 -3 -1279 1 -7 4 -9 22 -11 93
-1 6 1 27 3 45 2 17 0 37 -4 43 -4 7 -95 11 -280 10 -186 0 -268 3 -256 10 9
6 17 16 17 24 0 7 4 15 8 17 4 2 28 32 52 68 25 36 48 67 53 68 4 2 7 10 7 17
0 7 3 15 8 17 15 7 219 320 261 401 21 39 35 34 51 -20z m-483 -607 c2 -2 -8
-46 -23 -97 l-26 -94 -357 1 c-196 1 -362 2 -368 3 -10 1 -13 27 -13 96 l0 94
113 3 c143 4 669 -1 674 -6z"/>
<path d="M13329 6418 c-1 -17 -1 -248 0 -270 1 -13 9 -18 30 -18 35 0 40 12
40 93 0 73 7 82 20 26 16 -64 43 -113 65 -117 16 -4 38 16 36 33 0 3 7 19 15
35 8 16 15 33 15 37 0 23 13 73 18 68 4 -3 7 -43 7 -88 l1 -82 30 0 29 0 2
148 2 147 -48 0 -47 0 -28 -85 c-15 -47 -30 -85 -34 -85 -4 0 -13 26 -21 58
-22 96 -34 112 -86 112 -29 0 -45 -5 -46 -12z"/>
<path d="M8013 5173 c-7 -3 6 -29 34 -69 l45 -64 -46 -69 c-25 -38 -46 -71
-46 -75 0 -3 13 -6 28 -6 26 0 72 28 72 44 0 8 40 48 41 41 1 -3 2 -9 3 -14 0
-5 11 -23 24 -40 19 -26 29 -31 64 -31 40 0 40 0 24 23 -9 12 -19 29 -23 37
-4 8 -9 17 -12 20 -18 15 -45 82 -36 88 13 9 64 87 67 103 2 8 -10 13 -30 15
-29 1 -37 -4 -58 -38 -14 -22 -27 -38 -29 -36 -2 1 -16 19 -32 38 -26 33 -57
44 -90 33z"/>
<path d="M12275 4430 c-3 -4 13 -35 35 -69 l40 -61 -45 -66 c-24 -37 -42 -71
-39 -75 10 -17 59 -5 82 19 12 14 22 28 22 32 0 4 9 10 19 13 15 4 23 -4 35
-33 14 -36 17 -38 60 -37 42 0 44 2 34 21 -18 35 -71 111 -80 114 -4 2 10 30
32 62 50 74 52 82 15 84 -29 2 -48 -12 -72 -50 -12 -18 -13 -17 -40 13 -27 29
-88 50 -98 33z"/>
</g>
</svg>
