<?xml version="1.0" standalone="no"?>
<!DOCTYPE svg PUBLIC "-//W3C//DTD SVG 20010904//EN"
 "http://www.w3.org/TR/2001/REC-SVG-20010904/DTD/svg10.dtd">
<svg version="1.0" xmlns="http://www.w3.org/2000/svg"
 width="120.000000pt" height="120.000000pt" viewBox="0 0 120.000000 120.000000"
 preserveAspectRatio="xMidYMid meet">
<metadata>
Created by potrace 1.11, written by Peter Selinger 2001-2013
</metadata>
<g transform="translate(0.000000,120.000000) scale(0.100000,-0.100000)"
fill="#000000" stroke="none">
<path d="M475 1128 c-27 -10 -57 -28 -66 -40 -10 -11 -33 -28 -51 -37 -30 -14
-71 -77 -87 -132 -9 -29 -3 -181 7 -191 7 -7 7 -19 2 -34 -5 -13 -6 -25 -2
-28 4 -3 9 -22 10 -42 2 -21 7 -43 11 -49 4 -5 10 -20 13 -31 5 -20 2 -21 -54
-20 -49 1 -62 -2 -70 -17 -9 -18 -3 -222 8 -258 2 -9 -1 -23 -8 -30 -43 -45
-88 -144 -88 -196 l0 -23 515 1 c283 0 515 4 515 8 0 8 -16 62 -28 91 -3 8 -6
17 -6 20 -1 3 -14 27 -30 55 -27 45 -40 95 -26 95 3 0 5 55 5 123 l0 122 -27
0 c-15 1 -30 3 -33 7 -3 3 -21 3 -40 1 -38 -4 -45 10 -25 47 9 17 12 32 25
115 2 17 9 50 15 74 14 56 11 134 -7 188 -28 81 -122 163 -218 188 -16 5 -71
9 -120 10 -70 2 -102 -2 -140 -17z"/>
</g>
</svg>
