<svg id="Layer_1" xmlns="http://www.w3.org/2000/svg" viewBox="0 0 360 360"><style>.st0{fill:#323232}</style><path class="st0" d="M100.4 188.9c-1 6.2-4.4 13-13.2 13-6.4 0-11.4-3.6-11.4-11.6l.2-19.5h-2.9v-.9c7.2-1.5 13.5-5.4 16.6-11.9h.7v11.2h9.4l-.3 1.6h-9.1v20c0 2.8 1.2 4.5 3.6 4.5 2.8 0 4.6-2.5 5.5-6.8l.9.4zm27.7-8.2c0-2.6-1.5-4-4.3-4-2.6 0-5.1 1.7-5.1 6.4v11.2c0 4.2 1.2 5.1 4.6 6.9v.1h-21.8v-.1c2.6-2.1 2.6-2.6 2.6-6.9v-17.9c0-4.7-.1-5.1-3.1-7.1v-.1h17.7v10.1c1.6-5.7 4.2-10.8 9.9-10.8 4.6 0 7.4 3.3 7.4 7.5 0 5.3-3.5 8.4-7.7 8.4-1 0-2-.3-2.4-.5 1.4-.4 2.2-1.8 2.2-3.2zm47.4 18.2c-1.9 1.9-5.5 3.1-8.9 3.1-6.2 0-9.1-2.2-9.8-5.8-.1-.3-.1-.8-.1-.9-1.2 4.2-4.7 6.5-10.1 6.5-5 0-9.7-2.6-9.7-8.1 0-7.4 7-8.7 14.8-10.1l4.9-.9V175c0-2.5-.7-5.3-3.5-5.3-2.1 0-3.5 1.9-3.5 4.6 0 3 1.1 4.2 3.1 4.2.4 0 .9-.1 1.4-.2-1.7 2.8-4.7 4.2-8.5 4.2s-6.9-2.2-6.9-5.8c0-5.3 6.1-8.3 14.9-8.3 11.7 0 17.4 3.2 17.4 11.4 0 3-.1 6.7-.1 11.7 0 4.6.1 7.1 3.5 7.1.3 0 .8 0 1.2-.1v.4zm-20.8-14.7c-3 .7-3.9 3.2-3.9 7.2 0 2.8.7 5.1 2.8 5.1 2.4 0 3-2.7 3-5.2v-7.5l-1.9.4z"/><path class="st0" d="M192.1 169.2v8c1.5-5.6 5.6-8.7 11-8.7 7.5 0 10.3 5.5 10.3 11.1v14.6c0 4.2 0 4.8 2.6 6.9v.1h-19.9v-.1c2.6-2.1 2.6-2.6 2.6-6.9v-15.5c0-2.1-1.1-3.6-3-3.6-2.2 0-3.7 1.5-3.7 6.5v12.6c0 4.2 0 4.8 2.6 6.9v.1h-19.9v-.1c2.6-2.1 2.6-2.6 2.6-6.9v-17.9c0-4.7-.1-5.1-3.1-7.1v-.1h17.9zm34.1 3.5c0 2.8 2.4 3.3 8 5.3 8.1 2.9 11.9 5.8 11.9 12.6 0 6.7-5.2 11.3-13.8 11.3-4.4 0-7.6-1.2-10.1-1.2-1.8 0-2.6.7-3.5 1.3l-.7-11.4h.1c4.1 6.9 8.7 10.3 14.2 10.3 2.8 0 4.7-1.1 4.7-3.7 0-3-2.6-3.5-6.9-5.1-8.1-2.8-12.1-6.2-12.1-13 0-6.2 5.1-10.6 12.2-10.6 4 0 6.7 1.4 9.1 1.4 1.6 0 2.6-.5 3.8-1.5v10.3h-.1c-3.1-5.7-8.6-9.2-12.8-9.2-2.4.1-4 1.1-4 3.2zm60.6 26.2c-1.9 1.9-5.5 3.1-8.9 3.1-6.2 0-9.1-2.2-9.8-5.8-.1-.3-.1-.8-.1-.9-1.2 4.2-4.7 6.5-10.1 6.5-5 0-9.7-2.6-9.7-8.1 0-7.4 7-8.7 14.8-10.1l4.9-.9V175c0-2.5-.7-5.3-3.5-5.3-2.1 0-3.5 1.9-3.5 4.6 0 3 1.1 4.2 3.1 4.2.4 0 .9-.1 1.4-.2-1.7 2.8-4.7 4.2-8.5 4.2s-6.9-2.2-6.9-5.8c0-5.3 6.1-8.3 14.9-8.3 11.7 0 17.4 3.2 17.4 11.4 0 3-.1 6.7-.1 11.7 0 4.6.1 7.1 3.5 7.1.3 0 .8 0 1.2-.1v.4zm-20.7-14.7c-3 .7-3.9 3.2-3.9 7.2 0 2.8.7 5.1 2.8 5.1 2.4 0 3-2.7 3-5.2v-7.5l-1.9.4z"/></svg>